<svg width="24" height="24" viewBox="0 0 24 24" fill="none" xmlns="http://www.w3.org/2000/svg">
<path d="M16.16 19.1915C15.97 19.3915 15.71 19.5015 15.44 19.5015H2.5C1.39 19.5015 0.5 18.6015 0.5 17.5015C0.5 16.4015 1.4 15.5015 2.5 15.5015H13.73C14.01 15.5015 14.27 15.3815 14.46 15.1815L19.98 10.3415C20.75 9.52147 22.04 9.48146 22.85 10.2515C23.67 11.0215 23.71 12.3015 22.94 13.1215L16.16 19.1915Z" stroke="#000" stroke-linecap="round" stroke-linejoin="round"/>
<path d="M4.50977 23.5L7.50977 19.5" stroke="#000" stroke-linecap="round" stroke-linejoin="round"/>
<path d="M16.4687 23.5L13.4688 19.5" stroke="#000" stroke-linecap="round" stroke-linejoin="round"/>
<path d="M6 1.5V0.5" stroke="#000" stroke-linecap="round" stroke-linejoin="round"/>
<path d="M10.5 6H11.5" stroke="#000" stroke-linecap="round" stroke-linejoin="round"/>
<path d="M6 10.5V11.5" stroke="#000" stroke-linecap="round" stroke-linejoin="round"/>
<path d="M1.5 6H0.5" stroke="#000" stroke-linecap="round" stroke-linejoin="round"/>
<path d="M9.19141 2.81938L9.89141 2.10938" stroke="#000" stroke-linecap="round" stroke-linejoin="round"/>
<path d="M9.19141 9.17969L9.89141 9.88969" stroke="#000" stroke-linecap="round" stroke-linejoin="round"/>
<path d="M2.81938 9.17969L2.10938 9.88969" stroke="#000" stroke-linecap="round" stroke-linejoin="round"/>
<path d="M2.81938 2.81938L2.10938 2.10938" stroke="#000" stroke-linecap="round" stroke-linejoin="round"/>
<path d="M6 8.51953C7.38071 8.51953 8.5 7.40024 8.5 6.01953C8.5 4.63882 7.38071 3.51953 6 3.51953C4.61929 3.51953 3.5 4.63882 3.5 6.01953C3.5 7.40024 4.61929 8.51953 6 8.51953Z" stroke="#000" stroke-linecap="round" stroke-linejoin="round"/>
</svg>
