<svg width="24" height="24" viewBox="0 0 24 24" fill="none" xmlns="http://www.w3.org/2000/svg">
<path d="M14.5 10.5H21.5C22.05 10.5 22.5 10.95 22.5 11.5V16.5C22.5 17.05 22.05 17.5 21.5 17.5H14.5C13.95 17.5 13.5 17.05 13.5 16.5V11.5C13.5 10.95 13.95 10.5 14.5 10.5Z" stroke="#000" stroke-linecap="round" stroke-linejoin="round"/>
<path d="M18 15.5V13" stroke="#000" stroke-linecap="round" stroke-linejoin="round"/>
<path d="M15 10.5V9.5C15 7.84 16.34 6.5 18 6.5C19.66 6.5 21 7.84 21 9.5V10.5" stroke="#000" stroke-linecap="round" stroke-linejoin="round"/>
<path d="M18 12.75C18.14 12.75 18.25 12.86 18.25 13C18.25 13.14 18.14 13.25 18 13.25C17.86 13.25 17.75 13.14 17.75 13C17.75 12.86 17.86 12.75 18 12.75Z" stroke="#000" stroke-linecap="round" stroke-linejoin="round"/>
<path d="M10.5 3H18C18.28 3 18.5 3.22 18.5 3.5V5" stroke="#000" stroke-linecap="round" stroke-linejoin="round"/>
<path d="M18.5 19.5V21C18.5 21.28 18.28 21.5 18 21.5H10.5" stroke="#000" stroke-linecap="round" stroke-linejoin="round"/>
<path d="M1.5 21.22C1.5 21.45 1.66 21.66 1.89 21.71L9.89 23.49C10.16 23.55 10.43 23.38 10.49 23.11C10.5 23.07 10.5 23.04 10.5 23V1C10.5 0.72 10.28 0.5 10 0.5C9.96 0.5 9.93 0.5 9.89 0.51L1.89 2.29C1.66 2.34 1.5 2.54 1.5 2.78V21.22Z" stroke="#000" stroke-linecap="round" stroke-linejoin="round"/>
<path d="M7 13.5C7.82843 13.5 8.5 12.8284 8.5 12C8.5 11.1716 7.82843 10.5 7 10.5C6.17157 10.5 5.5 11.1716 5.5 12C5.5 12.8284 6.17157 13.5 7 13.5Z" stroke="#000" stroke-linecap="round" stroke-linejoin="round"/>
</svg>
