<svg width="24" height="24" viewBox="0 0 24 24" fill="none" xmlns="http://www.w3.org/2000/svg">
<path d="M12 22V23.5" stroke="#000" stroke-linecap="round" stroke-linejoin="round"/>
<path d="M15.8301 20.8281L16.6601 22.2481" stroke="#000" stroke-linecap="round" stroke-linejoin="round"/>
<path d="M18.6406 18.0195L20.0606 18.8395" stroke="#000" stroke-linecap="round" stroke-linejoin="round"/>
<path d="M8.16984 20.8281L7.33984 22.2481" stroke="#000" stroke-linecap="round" stroke-linejoin="round"/>
<path d="M5.36141 18.0195L3.94141 18.8395" stroke="#000" stroke-linecap="round" stroke-linejoin="round"/>
<path d="M19.9406 16C20.4906 16 20.9406 15.55 20.9406 15C20.9406 14.96 20.9406 14.92 20.9306 14.88C20.5306 11.73 18.5106 9.03 15.6006 7.75C15.2406 7.59 15.0006 7.23 15.0006 6.83V6C15.0006 4.34 13.6606 3 12.0006 3C10.3406 3 9.00063 4.34 9.00063 6V6.83C9.00063 7.23 8.76063 7.59 8.40063 7.75C5.49063 9.02 3.47063 11.73 3.07063 14.88C3.00063 15.42 3.39063 15.92 3.94063 15.99C3.98063 16 4.02063 16 4.06063 16H19.9406Z" stroke="#000" stroke-linecap="round" stroke-linejoin="round"/>
<path d="M8.53125 16.5C9.63125 18.41 12.0813 19.07 13.9913 17.97C14.6013 17.62 15.1113 17.11 15.4613 16.5" stroke="#000" stroke-linecap="round" stroke-linejoin="round"/>
<path d="M12 3V0.5" stroke="#000" stroke-linecap="round" stroke-linejoin="round"/>
</svg>
