<svg width="24" height="24" viewBox="0 0 24 24" fill="none" xmlns="http://www.w3.org/2000/svg">
<path d="M0.899375 9.03125C0.769375 9.51125 0.669375 10.0013 0.609375 10.5013" stroke="#000" stroke-linecap="round" stroke-linejoin="round"/>
<path d="M2.89078 5.01172C2.58078 5.40172 2.30078 5.82172 2.05078 6.25172" stroke="#000" stroke-linecap="round" stroke-linejoin="round"/>
<path d="M0.609375 13.5C0.679375 14 0.769375 14.49 0.899375 14.97" stroke="#000" stroke-linecap="round" stroke-linejoin="round"/>
<path d="M18.9902 2.89078C18.5902 2.59078 18.1802 2.30078 17.7402 2.05078" stroke="#000" stroke-linecap="round" stroke-linejoin="round"/>
<path d="M21.9494 6.25C21.6994 5.81 21.4194 5.4 21.1094 5" stroke="#000" stroke-linecap="round" stroke-linejoin="round"/>
<path d="M2.05078 17.75C2.30078 18.19 2.58078 18.6 2.89078 19" stroke="#000" stroke-linecap="round" stroke-linejoin="round"/>
<path d="M6.24977 2.05078C5.81977 2.30078 5.39977 2.58078 5.00977 2.89078" stroke="#000" stroke-linecap="round" stroke-linejoin="round"/>
<path d="M14.97 0.899375C14.49 0.769375 14 0.669375 13.5 0.609375" stroke="#000" stroke-linecap="round" stroke-linejoin="round"/>
<path d="M10.4993 0.609375C9.9993 0.669375 9.5093 0.769375 9.0293 0.899375" stroke="#000" stroke-linecap="round" stroke-linejoin="round"/>
<path d="M5.00977 21.1094C5.40977 21.4094 5.81977 21.6994 6.25977 21.9494" stroke="#000" stroke-linecap="round" stroke-linejoin="round"/>
<path d="M23.0996 14.97C23.2296 14.49 23.3296 14 23.3896 13.5" stroke="#000" stroke-linecap="round" stroke-linejoin="round"/>
<path d="M23.3896 10.5013C23.3196 10.0013 23.2296 9.51125 23.0996 9.03125" stroke="#000" stroke-linecap="round" stroke-linejoin="round"/>
<path d="M21.1094 18.9883C21.4094 18.5883 21.6994 18.1783 21.9494 17.7383" stroke="#000" stroke-linecap="round" stroke-linejoin="round"/>
<path d="M9.0293 23.1016C9.5093 23.2316 9.9993 23.3316 10.4993 23.3916" stroke="#000" stroke-linecap="round" stroke-linejoin="round"/>
<path d="M17.75 21.9494C18.19 21.6994 18.6 21.4194 19 21.1094" stroke="#000" stroke-linecap="round" stroke-linejoin="round"/>
<path d="M13.5 23.3916C14 23.3216 14.49 23.2316 14.97 23.1016" stroke="#000" stroke-linecap="round" stroke-linejoin="round"/>
<path d="M12 5.5V13.5" stroke="#000" stroke-linecap="round"/>
<path d="M12 18.5C12.2761 18.5 12.5 18.2761 12.5 18C12.5 17.7239 12.2761 17.5 12 17.5C11.7239 17.5 11.5 17.7239 11.5 18C11.5 18.2761 11.7239 18.5 12 18.5Z" fill="#000" stroke="#000"/>
</svg>
