<svg width="24" height="24" viewBox="0 0 24 24" fill="none" xmlns="http://www.w3.org/2000/svg">
<path d="M12 7.5V23.5" stroke="#000" stroke-linecap="round" stroke-linejoin="round"/>
<path d="M12 14.5C14.49 14.5 16.5 12.49 16.5 10" stroke="#000" stroke-linecap="round" stroke-linejoin="round"/>
<path d="M12 12.5C10.07 12.5 8.5 10.93 8.5 9" stroke="#000" stroke-linecap="round" stroke-linejoin="round"/>
<path d="M21.5 10.75C21.5 9.33 20.65 8.11 19.43 7.56C19.47 7.38 19.5 7.19 19.5 7C19.5 5.62 18.38 4.5 17 4.5C16.63 4.5 16.29 4.58 15.98 4.72C15.98 4.65 16 4.58 16 4.5C16 2.29 14.21 0.5 12 0.5C9.79 0.5 8 2.29 8 4.5C8 4.58 8.02 4.65 8.02 4.72C7.71 4.58 7.37 4.5 7 4.5C5.62 4.5 4.5 5.62 4.5 7C4.5 7.19 4.53 7.38 4.57 7.56C3.35 8.11 2.5 9.33 2.5 10.75C2.5 11.94 3.1 13 4.01 13.63C4.08 16.33 6.28 18.5 9 18.5C10.13 18.5 11.16 18.11 12 17.48C12.84 18.11 13.87 18.5 15 18.5C17.72 18.5 19.92 16.33 19.99 13.63C20.9 13 21.5 11.94 21.5 10.75Z" stroke="#000" stroke-linecap="round" stroke-linejoin="round"/>
</svg>
