<svg width="24" height="24" viewBox="0 0 24 24" fill="none" xmlns="http://www.w3.org/2000/svg">
<path d="M10.5 20.5C11.0523 20.5 11.5 20.0523 11.5 19.5C11.5 18.9477 11.0523 18.5 10.5 18.5C9.94772 18.5 9.5 18.9477 9.5 19.5C9.5 20.0523 9.94772 20.5 10.5 20.5Z" stroke="#000" stroke-linecap="round" stroke-linejoin="round"/>
<path d="M10.5 18.5V12.5" stroke="#000" stroke-linecap="round" stroke-linejoin="round"/>
<path d="M14.5 2.5H15.5" stroke="#000" stroke-linecap="round" stroke-linejoin="round"/>
<path d="M14.5 7.5H15.5" stroke="#000" stroke-linecap="round" stroke-linejoin="round"/>
<path d="M14.5 12.5H17.5" stroke="#000" stroke-linecap="round" stroke-linejoin="round"/>
<path d="M12.5 16.05V2.5C12.5 1.4 11.6 0.5 10.5 0.5C9.4 0.5 8.5 1.4 8.5 2.5V16.05C7.31 16.74 6.5 18.02 6.5 19.5C6.5 21.71 8.29 23.5 10.5 23.5C12.71 23.5 14.5 21.71 14.5 19.5C14.5 18.02 13.69 16.75 12.5 16.05Z" stroke="#000" stroke-linecap="round" stroke-linejoin="round"/>
</svg>
