<svg width="24" height="25" viewBox="0 0 24 25" fill="none" xmlns="http://www.w3.org/2000/svg">
<path d="M9 4.5C10.1 4.5 11 3.6 11 2.5C11 1.4 10.1 0.5 9 0.5C7.9 0.5 7 1.4 7 2.5C7 3.6 7.9 4.5 9 4.5Z" stroke="#000" stroke-linecap="round" stroke-linejoin="round"/>
<path d="M5.5 10V11C5.5 11.55 5.95 12 6.5 12H8.5C9.05 12 9.5 12.45 9.5 13C9.5 13.55 9.05 14 8.5 14H6.5C4.84 14 3.5 12.66 3.5 11V10.5C3.5 8.29 5.29 6.5 7.5 6.5H10.21C12.01 6.5 13.59 7.71 14.07 9.45L14.47 10.91C14.88 12.4 14.39 14 13.21 15.01L11.86 16.17C11.59 16.42 11.21 16.51 10.86 16.39C10.51 16.27 10.25 15.97 10.19 15.61C10.13 15.25 10.27 14.88 10.56 14.65L11.91 13.49C12.5 12.99 12.74 12.19 12.54 11.44L12.15 10.02" stroke="#000" stroke-linecap="round" stroke-linejoin="round"/>
<path d="M12.8594 15.2617L14.8594 17.6417" stroke="#000" stroke-linecap="round" stroke-linejoin="round"/>
<path d="M4 4.75L11.57 13.73" stroke="#000" stroke-linecap="round" stroke-linejoin="round"/>
<path d="M15.6296 17.2117C14.9296 17.4417 14.3896 17.9917 14.1596 18.6817C13.9396 19.3217 14.0196 20.0317 14.3696 20.6217L16.1696 23.0217C16.3296 23.2817 16.5996 23.4617 16.9096 23.5017C17.2196 23.5417 17.5196 23.4317 17.7396 23.2117L20.1696 20.7817C20.3896 20.5617 20.4896 20.2617 20.4596 19.9517C20.4196 19.6417 20.2496 19.3717 19.9796 19.2117L17.5796 17.4117C16.9796 17.0617 16.2696 16.9917 15.6296 17.2117Z" stroke="#000" stroke-linecap="round" stroke-linejoin="round"/>
<path d="M18.2305 22.7109L17.2305 21.7109" stroke="#000" stroke-linecap="round" stroke-linejoin="round"/>
<path d="M19.4805 21.4609L18.4805 20.4609" stroke="#000" stroke-linecap="round" stroke-linejoin="round"/>
<path d="M11.5 18.5V22.5C11.5 23.05 11.05 23.5 10.5 23.5H7.5C6.95 23.5 6.5 23.05 6.5 22.5V16" stroke="#000" stroke-linecap="round" stroke-linejoin="round"/>
<path d="M9 23.5V17.5" stroke="#000" stroke-linecap="round" stroke-linejoin="round"/>
</svg>
