<svg width="24" height="24" viewBox="0 0 24 24" fill="none" xmlns="http://www.w3.org/2000/svg">
<path d="M2.5 17V19" stroke="#000" stroke-linecap="round" stroke-linejoin="round"/>
<path d="M21.5 17V19" stroke="#000" stroke-linecap="round" stroke-linejoin="round"/>
<path d="M0.5 11V15C0.5 16.1 1.4 17 2.5 17H21.5C22.6 17 23.5 16.1 23.5 15V11" stroke="#000" stroke-linecap="round" stroke-linejoin="round"/>
<path d="M20.5 11V12C20.5 12.55 20.05 13 19.5 13H4.5C3.95 13 3.5 12.55 3.5 12V11" stroke="#000" stroke-linecap="round" stroke-linejoin="round"/>
<path d="M21.5 9.56V9C21.5 6.79 19.71 5 17.5 5H6.5C4.29 5 2.5 6.79 2.5 9V9.58" stroke="#000" stroke-linecap="round" stroke-linejoin="round"/>
<path d="M0.5 11C0.5 10.17 1.17 9.5 2 9.5C2.83 9.5 3.5 10.17 3.5 11" stroke="#000" stroke-linecap="round" stroke-linejoin="round"/>
<path d="M23.5 11C23.5 10.17 22.83 9.5 22 9.5C21.17 9.5 20.5 10.17 20.5 11" stroke="#000" stroke-linecap="round" stroke-linejoin="round"/>
<path d="M12 5V13" stroke="#000" stroke-linecap="round" stroke-linejoin="round"/>
</svg>
