<svg width="24" height="24" viewBox="0 0 24 24" fill="none" xmlns="http://www.w3.org/2000/svg">
<path d="M4.12891 19.7797C3.61891 19.9797 3.36891 20.5697 3.56891 21.0797C3.76891 21.5897 4.35891 21.8397 4.86891 21.6397L9.04891 19.9797C9.55891 19.7797 9.80891 19.1897 9.60891 18.6797C9.40891 18.1697 8.81891 17.9197 8.30891 18.1197L4.12891 19.7797Z" stroke="#000" stroke-linecap="round" stroke-linejoin="round"/>
<path d="M6.5 21V23C6.5 23.28 6.28 23.5 6 23.5H2C1.72 23.5 1.5 23.28 1.5 23V18C1.5 17.72 1.72 17.5 2 17.5H6C6.28 17.5 6.5 17.72 6.5 18V18.5" stroke="#000" stroke-linecap="round" stroke-linejoin="round"/>
<path d="M18 13.5C18.14 13.5 18.25 13.61 18.25 13.75C18.25 13.89 18.14 14 18 14C17.86 14 17.75 13.89 17.75 13.75C17.75 13.61 17.86 13.5 18 13.5Z" fill="#000" stroke="#000" stroke-linecap="round" stroke-linejoin="round"/>
<path d="M20.5 13.5C20.64 13.5 20.75 13.61 20.75 13.75C20.75 13.89 20.64 14 20.5 14C20.36 14 20.25 13.89 20.25 13.75C20.25 13.61 20.36 13.5 20.5 13.5Z" fill="#000" stroke="#000" stroke-linecap="round" stroke-linejoin="round"/>
<path d="M21 16.5C21.14 16.5 21.25 16.61 21.25 16.75C21.25 16.89 21.14 17 21 17C20.86 17 20.75 16.89 20.75 16.75C20.75 16.61 20.86 16.5 21 16.5Z" fill="#000" stroke="#000" stroke-linecap="round" stroke-linejoin="round"/>
<path d="M15 16.5C15.14 16.5 15.25 16.61 15.25 16.75C15.25 16.89 15.14 17 15 17C14.86 17 14.75 16.89 14.75 16.75C14.75 16.61 14.86 16.5 15 16.5Z" fill="#000" stroke="#000" stroke-linecap="round" stroke-linejoin="round"/>
<path d="M21.5 19.5C21.64 19.5 21.75 19.61 21.75 19.75C21.75 19.89 21.64 20 21.5 20C21.36 20 21.25 19.89 21.25 19.75C21.25 19.61 21.36 19.5 21.5 19.5Z" fill="#000" stroke="#000" stroke-linecap="round" stroke-linejoin="round"/>
<path d="M14.5 19.5C14.64 19.5 14.75 19.61 14.75 19.75C14.75 19.89 14.64 20 14.5 20C14.36 20 14.25 19.89 14.25 19.75C14.25 19.61 14.36 19.5 14.5 19.5Z" fill="#000" stroke="#000" stroke-linecap="round" stroke-linejoin="round"/>
<path d="M15.5 13.5C15.64 13.5 15.75 13.61 15.75 13.75C15.75 13.89 15.64 14 15.5 14C15.36 14 15.25 13.89 15.25 13.75C15.25 13.61 15.36 13.5 15.5 13.5Z" fill="#000" stroke="#000" stroke-linecap="round" stroke-linejoin="round"/>
<path d="M18 16.5C18.14 16.5 18.25 16.61 18.25 16.75C18.25 16.89 18.14 17 18 17C17.86 17 17.75 16.89 17.75 16.75C17.75 16.61 17.86 16.5 18 16.5Z" fill="#000" stroke="#000" stroke-linecap="round" stroke-linejoin="round"/>
<path d="M18 19.5C18.14 19.5 18.25 19.61 18.25 19.75C18.25 19.89 18.14 20 18 20C17.86 20 17.75 19.89 17.75 19.75C17.75 19.61 17.86 19.5 18 19.5Z" fill="#000" stroke="#000" stroke-linecap="round" stroke-linejoin="round"/>
<path d="M22 22.5C22.14 22.5 22.25 22.61 22.25 22.75C22.25 22.89 22.14 23 22 23C21.86 23 21.75 22.89 21.75 22.75C21.75 22.61 21.86 22.5 22 22.5Z" fill="#000" stroke="#000" stroke-linecap="round" stroke-linejoin="round"/>
<path d="M14 22.5C14.14 22.5 14.25 22.61 14.25 22.75C14.25 22.89 14.14 23 14 23C13.86 23 13.75 22.89 13.75 22.75C13.75 22.61 13.86 22.5 14 22.5Z" fill="#000" stroke="#000" stroke-linecap="round" stroke-linejoin="round"/>
<path d="M18 22.5C18.14 22.5 18.25 22.61 18.25 22.75C18.25 22.89 18.14 23 18 23C17.86 23 17.75 22.89 17.75 22.75C17.75 22.61 17.86 22.5 18 22.5Z" fill="#000" stroke="#000" stroke-linecap="round" stroke-linejoin="round"/>
<path d="M11 1.5C6.31 1.5 2.5 5.31 2.5 10V17.5H5.5V10C5.5 6.96 7.96 4.5 11 4.5C14.04 4.5 16.5 6.96 16.5 10C16.5 10.28 16.72 10.5 17 10.5H19C19.28 10.5 19.5 10.28 19.5 10C19.5 5.31 15.69 1.5 11 1.5Z" stroke="#000" stroke-linecap="round" stroke-linejoin="round"/>
</svg>
