<svg width="24" height="24" viewBox="0 0 24 24" fill="none" xmlns="http://www.w3.org/2000/svg">
<path d="M8.25977 17.8906C8.82977 19.4106 10.2798 20.5006 11.9998 20.5006C13.7198 20.5006 15.1698 19.4106 15.7398 17.8906" stroke="#000" stroke-linecap="round" stroke-linejoin="round"/>
<path d="M19.5098 14.6406C20.0598 16.1206 21.4598 17.1906 23.1198 17.2406" stroke="#000" stroke-linecap="round" stroke-linejoin="round"/>
<path d="M12.0098 14.6406C12.5798 16.1606 14.0298 17.2506 15.7498 17.2506C17.4698 17.2506 18.9198 16.1606 19.4898 14.6406" stroke="#000" stroke-linecap="round" stroke-linejoin="round"/>
<path d="M4.50977 14.6406C5.07977 16.1606 6.52977 17.2506 8.24977 17.2506C9.96977 17.2506 11.4198 16.1606 11.9898 14.6406" stroke="#000" stroke-linecap="round" stroke-linejoin="round"/>
<path d="M0.878906 17.2484C2.53891 17.1984 3.94891 16.1284 4.49891 14.6484" stroke="#000" stroke-linecap="round" stroke-linejoin="round"/>
<path d="M15.7598 11.6406C16.3298 13.1606 17.7798 14.2506 19.4998 14.2506C20.6498 14.2506 21.6898 13.7606 22.4098 12.9806" stroke="#000" stroke-linecap="round" stroke-linejoin="round"/>
<path d="M8.25977 11.6406C8.82977 13.1606 10.2798 14.2506 11.9998 14.2506C13.7198 14.2506 15.1698 13.1606 15.7398 11.6406" stroke="#000" stroke-linecap="round" stroke-linejoin="round"/>
<path d="M1.58984 12.9806C2.31984 13.7606 3.34984 14.2506 4.49984 14.2506C6.21984 14.2506 7.67984 13.1706 8.24984 11.6406" stroke="#000" stroke-linecap="round" stroke-linejoin="round"/>
<path d="M19.5098 8.39062C19.9398 9.54062 20.8798 10.4406 22.0498 10.8106" stroke="#000" stroke-linecap="round" stroke-linejoin="round"/>
<path d="M12.0098 8.39062C12.5798 9.91062 14.0298 11.0006 15.7498 11.0006C17.4698 11.0006 18.9198 9.91062 19.4898 8.39062" stroke="#000" stroke-linecap="round" stroke-linejoin="round"/>
<path d="M4.50977 8.39062C5.07977 9.91062 6.52977 11.0006 8.24977 11.0006C9.96977 11.0006 11.4198 9.91062 11.9898 8.39062" stroke="#000" stroke-linecap="round" stroke-linejoin="round"/>
<path d="M1.94922 10.8184C3.12922 10.4484 4.06922 9.54844 4.49922 8.39844" stroke="#000" stroke-linecap="round" stroke-linejoin="round"/>
<path d="M15.7598 5.14062C16.3298 6.66062 17.7798 7.75063 19.4998 7.75063C20.2098 7.75063 20.8798 7.56062 21.4598 7.24062" stroke="#000" stroke-linecap="round" stroke-linejoin="round"/>
<path d="M8.25977 5.14062C8.82977 6.66062 10.2798 7.75063 11.9998 7.75063C13.7198 7.75063 15.1698 6.66062 15.7398 5.14062" stroke="#000" stroke-linecap="round" stroke-linejoin="round"/>
<path d="M2.53906 7.24062C3.11906 7.56062 3.78906 7.75063 4.49906 7.75063C6.21906 7.75063 7.67906 6.67062 8.24906 5.14062" stroke="#000" stroke-linecap="round" stroke-linejoin="round"/>
<path d="M15.7601 17.89C16.3301 19.41 17.7801 20.5 19.5001 20.5C21.1101 20.5 22.4901 19.54 23.1201 18.17C23.2001 17.99 23.2201 17.79 23.1901 17.6L21.1401 5.34C21.0601 4.86 20.6401 4.5 20.1501 4.5H3.85012C3.36012 4.5 2.94012 4.85 2.86012 5.34L0.810124 17.6C0.780124 17.79 0.790124 18 0.880124 18.17C1.51012 19.54 2.89012 20.5 4.50012 20.5C6.22012 20.5 7.68012 19.42 8.25012 17.89" stroke="#000" stroke-linecap="round" stroke-linejoin="round"/>
</svg>
