<svg width="24" height="24" viewBox="0 0 24 24" fill="none" xmlns="http://www.w3.org/2000/svg">
<path d="M11 4.65391V2.50391H9V4.65391C7.52 5.09391 6.5 6.45391 6.5 8.00391V22.5039C6.5 23.0539 6.95 23.5039 7.5 23.5039H12.5C13.05 23.5039 13.5 23.0539 13.5 22.5039V8.00391C13.5 6.45391 12.48 5.09391 11 4.65391Z" stroke="#000" stroke-linecap="round" stroke-linejoin="round"/>
<path d="M4.5 0.503906L9 2.50391C5.96 2.50391 3.5 4.96391 3.5 8.00391V20.5039" stroke="#000" stroke-linecap="round" stroke-linejoin="round"/>
<path d="M19.93 0.505103C20.2 0.465103 20.46 0.665103 20.49 0.935103C20.49 0.955103 20.49 0.975103 20.49 1.0051V4.0051C20.49 4.2851 20.27 4.5051 19.99 4.5051C19.97 4.5051 19.94 4.5051 19.92 4.5051L13.85 3.6951C13.37 3.6251 13 3.2051 13 2.7051V2.3151C13 1.8151 13.37 1.3851 13.87 1.3251L19.93 0.505103Z" stroke="#000" stroke-linecap="round" stroke-linejoin="round"/>
<path d="M11 2.50391H13" stroke="#000" stroke-linecap="round" stroke-linejoin="round"/>
<path d="M13.5 20.5039H11C10.72 20.5039 10.5 20.2839 10.5 20.0039V10.0039C10.5 9.72391 10.72 9.50391 11 9.50391H13.5" stroke="#000" stroke-linecap="round" stroke-linejoin="round"/>
</svg>
