<svg width="24" height="24" viewBox="0 0 24 24" fill="none" xmlns="http://www.w3.org/2000/svg">
<path d="M2.72078 7.66953C2.52078 7.46953 2.21078 7.46953 2.01078 7.66953L0.950781 8.72953C0.750781 8.92953 0.750781 9.23953 0.950781 9.43953L4.13078 12.6195C4.33078 12.8195 4.64078 12.8195 4.84078 12.6195L5.90078 11.5595C6.10078 11.3595 6.10078 11.0495 5.90078 10.8495L2.72078 7.66953Z" stroke="#000"/>
<path d="M5.36859 9.61189L5.89859 9.08189C6.09859 8.88189 6.40859 8.88189 6.60859 9.08189L7.48859 9.96189L9.95859 7.49189C9.36859 6.90189 9.36859 5.95189 9.95859 5.37189C10.9486 4.38189 12.2886 3.96189 13.5786 4.09189C13.8386 4.12189 13.9786 3.79189 13.7686 3.64189C11.2386 1.80189 7.65859 2.02189 5.36859 4.31189L3.95859 5.72189C3.75859 5.92189 3.75859 6.23189 3.95859 6.43189L4.48859 6.96189C4.68859 7.16189 4.68859 7.47189 4.48859 7.67189L3.95859 8.20189" stroke="#000"/>
<path d="M21.9902 21.99C21.3102 22.67 20.2002 22.67 19.5202 21.99L7.49023 9.97L9.96023 7.5L21.9802 19.52C22.6702 20.2 22.6702 21.3 21.9902 21.99Z" stroke="#000"/>
<path d="M20.75 21.25C21.0261 21.25 21.25 21.0261 21.25 20.75C21.25 20.4739 21.0261 20.25 20.75 20.25C20.4739 20.25 20.25 20.4739 20.25 20.75C20.25 21.0261 20.4739 21.25 20.75 21.25Z" fill="#000"/>
<path d="M4.25 21.25C4.52614 21.25 4.75 21.0261 4.75 20.75C4.75 20.4739 4.52614 20.25 4.25 20.25C3.97386 20.25 3.75 20.4739 3.75 20.75C3.75 21.0261 3.97386 21.25 4.25 21.25Z" fill="#000"/>
<path d="M10.0298 12.5L3.01977 19.51C2.33977 20.19 2.33977 21.3 3.01977 21.98C3.69977 22.66 4.80977 22.66 5.48977 21.98L12.4998 14.97L10.0298 12.5Z" stroke="#000"/>
<path d="M12.5 10.0286L14.97 12.4986L18.35 9.11862C19.63 9.50862 21.09 9.20862 22.1 8.19862C23.01 7.28862 23.35 6.03862 23.13 4.86862C23.07 4.55862 22.68 4.43862 22.45 4.66862L21.22 5.89862C20.63 6.48862 19.68 6.48862 19.1 5.89862C18.51 5.30862 18.51 4.35862 19.1 3.77862L20.34 2.53862C20.57 2.30862 20.45 1.91862 20.14 1.85862C18.71 1.59862 17.17 2.15862 16.27 3.55862C15.68 4.47862 15.55 5.62862 15.87 6.65862L12.5 10.0286Z" stroke="#000"/>
</svg>
