<svg width="168" height="168" viewBox="0 0 168 168" fill="none" xmlns="http://www.w3.org/2000/svg">
<g clip-path="url(#clip0_10722_7917)">
<circle cx="84" cy="84" r="84" fill="#00C389"/>
<path fill-rule="evenodd" clip-rule="evenodd" d="M83.9999 132C66.2395 132 49.8278 122.862 40.0996 107.554C38.0269 104.293 38.9241 99.9259 42.1026 97.8006C45.2824 95.6753 49.5394 96.5949 51.6121 99.8557C58.7945 111.157 70.9018 117.903 83.9999 117.903C97.0973 117.903 109.205 111.157 116.388 99.8557C118.461 96.5949 122.72 95.6747 125.898 97.8006C129.077 99.9265 129.973 104.293 127.901 107.554C118.172 122.862 101.76 132 83.9999 132Z" fill="white"/>
<path fill-rule="evenodd" clip-rule="evenodd" d="M60.5609 94.9438C67.1192 94.9438 73.1442 92.5558 76.6784 88.5542C78.0493 87.0131 78.6604 85.4865 78.6604 83.6084C78.6604 80.1736 76.2813 77.773 72.8717 77.773C70.7698 77.773 69.5451 78.4676 68.5223 79.2246C67.0485 80.3584 64.5816 82.2545 60.6585 82.2545C53.403 82.2545 50.1572 76.3346 50.1572 70.4692C50.1572 64.6044 53.403 58.6869 60.6585 58.6869C64.5939 58.6869 67.0584 60.5854 68.5392 61.7293C69.5475 62.4738 70.7721 63.1654 72.874 63.1654C76.2813 63.1654 78.6604 60.7678 78.6604 57.333C78.6604 55.4243 78.0686 53.9433 76.6807 52.3872C73.1419 48.388 67.1169 46 60.5609 46C46.0996 46 36 56.0613 36 70.4692C36 84.8795 46.0996 94.9438 60.5609 94.9438Z" fill="white"/>
<path fill-rule="evenodd" clip-rule="evenodd" d="M98.2386 70.4687C98.2386 64.7137 101.644 58.8886 108.15 58.8886C114.65 58.8886 118.051 64.7137 118.051 70.4687C118.051 76.2237 114.65 82.0513 108.15 82.0513C101.644 82.0513 98.2386 76.2237 98.2386 70.4687ZM108.15 94.9438C121.747 94.9438 132 84.4224 132 70.4692C132 56.5184 121.747 46 108.15 46C94.5464 46 84.2889 56.5184 84.2889 70.4692C84.2889 84.4224 94.5464 94.9438 108.15 94.9438Z" fill="white"/>
</g>
<defs>
<clipPath id="clip0_10722_7917">
<rect width="168" height="168" fill="white"/>
</clipPath>
</defs>
</svg>
