<svg width="120" height="105" viewBox="0 0 120 105" fill="none" xmlns="http://www.w3.org/2000/svg">
<path fill-rule="evenodd" clip-rule="evenodd" d="M59.9998 105C37.7994 105 17.2847 93.843 5.12447 75.1534C2.53364 71.1722 3.65507 65.8397 7.62831 63.2449C11.603 60.6501 16.9243 61.7729 19.5151 65.7541C28.4931 79.5521 43.6273 87.7891 59.9998 87.7891C76.3716 87.7891 91.5065 79.5521 100.485 65.7541C103.077 61.7729 108.4 60.6494 112.372 63.2449C116.346 65.8405 117.467 71.1722 114.876 75.1534C102.715 93.843 82.1996 105 59.9998 105Z" fill="#28245A"/>
<path fill-rule="evenodd" clip-rule="evenodd" d="M30.7011 59.757C38.899 59.757 46.4303 56.8414 50.848 51.9557C52.5616 50.0742 53.3255 48.2103 53.3255 45.9172C53.3255 41.7236 50.3516 38.7926 46.0896 38.7926C43.4622 38.7926 41.9314 39.6407 40.6528 40.565C38.8106 41.9492 35.727 44.2642 30.8232 44.2642C21.7538 44.2642 17.6965 37.0364 17.6965 29.8752C17.6965 22.7147 21.7538 15.4898 30.8232 15.4898C35.7424 15.4898 38.823 17.8078 40.674 19.2044C41.9344 20.1133 43.4652 20.9577 46.0926 20.9577C50.3516 20.9577 53.3255 18.0304 53.3255 13.8368C53.3255 11.5064 52.5857 9.69816 50.8509 7.79837C46.4274 2.9156 38.8961 0 30.7011 0C12.6245 0 0 12.2842 0 29.8752C0 47.4691 12.6245 59.757 30.7011 59.757Z" fill="#28245A"/>
<path fill-rule="evenodd" clip-rule="evenodd" d="M77.7983 29.8746C77.7983 22.8482 82.0544 15.736 90.1881 15.736C98.3129 15.736 102.563 22.8482 102.563 29.8746C102.563 36.901 98.3129 44.0161 90.1881 44.0161C82.0544 44.0161 77.7983 36.901 77.7983 29.8746ZM90.1879 59.757C107.184 59.757 120 46.911 120 29.8752C120 12.8423 107.184 0 90.1879 0C73.183 0 60.3612 12.8423 60.3612 29.8752C60.3612 46.911 73.183 59.757 90.1879 59.757Z" fill="#28245A"/>
</svg>
