<svg width="507" height="89" viewBox="0 0 507 89" fill="none" xmlns="http://www.w3.org/2000/svg">
<path d="M455.828 88C437.121 88 419.834 78.6491 409.587 62.9858C407.404 59.6488 408.349 55.1802 411.698 53.0055C415.047 50.8308 419.531 51.7713 421.714 55.1083C429.279 66.6722 442.032 73.5757 455.828 73.5757C469.623 73.5757 482.376 66.6722 489.942 55.1083C492.126 51.7713 496.611 50.8302 499.958 53.0055C503.307 55.1808 504.251 59.6488 502.068 62.9858C491.821 78.6491 474.534 88 455.828 88ZM431.139 50.082C438.047 50.082 444.394 47.6385 448.116 43.5438C449.56 41.9667 450.204 40.405 450.204 38.4829C450.204 34.9684 447.698 32.5121 444.106 32.5121C441.893 32.5121 440.602 33.2227 439.525 33.9972C437.973 35.1576 435.375 37.0976 431.242 37.0976C423.6 37.0976 420.181 31.0399 420.181 25.0384C420.181 19.037 423.6 12.9818 431.242 12.9818C435.387 12.9818 437.983 14.9244 439.543 16.095C440.605 16.8567 441.895 17.5647 444.109 17.5647C447.698 17.5647 450.204 15.111 450.204 11.5965C450.204 9.64373 449.58 8.12803 448.118 6.53566C444.391 2.44352 438.045 0 431.139 0C415.908 0 405.27 10.2955 405.27 25.0384C405.27 39.7839 415.908 50.082 431.139 50.082ZM456.132 25.0384C456.132 10.7633 466.936 0 481.265 0C495.587 0 506.386 10.7633 506.386 25.0384C506.386 39.3162 495.587 50.082 481.265 50.082C466.936 50.082 456.132 39.3162 456.132 25.0384ZM481.265 36.8905C488.112 36.8905 491.693 30.9274 491.693 25.0384C491.693 19.1494 488.112 13.1889 481.265 13.1889C474.411 13.1889 470.825 19.1494 470.825 25.0384C470.825 30.9274 474.411 36.8905 481.265 36.8905ZM63.5776 0C58.9757 0 55.2306 3.78797 55.2306 8.44242V34.424H16.6992V8.44242C16.6992 3.70874 13.0875 0 8.47531 0C3.80158 0 0 3.78797 0 8.44242V78.5531C0 83.2075 3.80158 86.9955 8.47531 86.9955C13.0875 86.9955 16.6992 83.2868 16.6992 78.5531V50.0564H55.2306V78.5531C55.2306 83.2075 58.9757 86.9955 63.5776 86.9955C68.1821 86.9955 71.9272 83.2075 71.9272 78.5531V8.44242C71.9272 3.78797 68.1821 0 63.5776 0ZM160.256 75.8974C160.795 76.9633 161.072 78.0751 161.072 79.1793C161.072 83.0209 158.091 86.9955 153.102 86.9955C149.844 86.9955 147.749 85.6511 146.089 82.4995L139.065 67.5215H102.579L95.568 82.4714C94.3957 84.598 92.5565 86.9955 88.542 86.9955C83.5528 86.9955 80.572 83.021 80.572 79.1793C80.572 78.0751 80.8491 76.9633 81.398 75.8719L113.668 4.40652C114.968 1.52337 117.441 0 120.822 0C124.316 0 126.724 1.48503 127.981 4.41674L160.256 75.8974ZM120.822 23.239L108.686 52.7683H132.958L120.822 23.239ZM241.458 27.4155C241.458 43.7968 230.04 53.576 210.917 53.576H187.492V78.6783C187.492 83.343 183.824 86.9955 179.142 86.9955C174.461 86.9955 170.795 83.343 170.795 78.6783V9.32168C170.795 4.65701 174.461 1.0045 179.142 1.0045H210.917C230.04 1.0045 241.458 10.8783 241.458 27.4155ZM213.062 16.3839H187.492V38.0688H213.062C221.057 38.0688 224.636 32.7192 224.636 27.4155C224.636 22.1016 221.014 16.3839 213.062 16.3839ZM322.025 27.4155C322.025 43.7968 310.607 53.576 291.484 53.576H268.059V78.6783C268.059 83.343 264.391 86.9955 259.709 86.9955C255.028 86.9955 251.362 83.343 251.362 78.6783V9.32168C251.362 4.65701 255.028 1.0045 259.709 1.0045H291.484C310.607 1.0045 322.025 10.8783 322.025 27.4155ZM293.628 16.3839H268.059V38.0688H293.628C301.624 38.0688 305.202 32.7192 305.202 27.4155C305.202 22.1016 301.58 16.3839 293.628 16.3839ZM391.518 0C388.898 0 386.787 1.11441 385.061 3.40969L362.641 33.8464L340.219 3.40201C338.496 1.11441 336.384 0 333.765 0C329.651 0 326.175 3.57838 326.175 7.8162C326.175 9.29356 326.704 10.9345 327.686 12.4732L354.292 48.7375V78.5531C354.292 83.2075 358.093 86.9955 362.767 86.9955C367.377 86.9955 370.988 83.2868 370.988 78.5531V48.7375L397.597 12.4706C398.585 11.116 399.108 9.50571 399.108 7.8162C399.108 3.6525 395.56 0 391.518 0Z" fill="#28245A"/>
</svg>
