<svg preserveAspectRatio="none" width="100%" height="100%" overflow="visible" style="display: block;" viewBox="0 0 14.3334 9.00032" fill="none" xmlns="http://www.w3.org/2000/svg">
<g id="elements">
<path id="Union" d="M2.15625 0.00308837C1.52461 0.0430023 0.936443 0.340133 0.53125 0.825354C0.223121 1.19445 0.108771 1.68519 0.0546875 2.24625C0.00051384 2.80863 -5.3757e-06 3.54323 3.64962e-08 4.47184V4.52848C-5.37371e-06 5.45691 0.000521062 6.19079 0.0546875 6.75309C0.108763 7.31441 0.222937 7.80576 0.53125 8.17496C0.936439 8.66009 1.52467 8.95732 2.15625 8.99723C2.63584 9.02746 3.10136 8.83153 3.58984 8.54508C4.07934 8.25802 4.72016 7.79451 5.47656 7.24821C5.9718 6.89053 6.37854 6.59509 6.69238 6.33219C6.6998 6.48195 6.7081 6.62221 6.7207 6.75309C6.77478 7.31443 6.88992 7.80575 7.19824 8.17496C7.60334 8.65989 8.19092 8.95722 8.82227 8.99723C9.30198 9.02754 9.76822 8.83162 10.2568 8.54508C10.7464 8.25799 11.3871 7.79454 12.1436 7.24821C12.6947 6.85016 13.1372 6.53043 13.4629 6.24528C13.7947 5.9547 14.0576 5.65639 14.1943 5.28336C14.3797 4.77715 14.3798 4.22216 14.1943 3.71598C14.0576 3.34288 13.7948 3.04469 13.4629 2.75406C13.1372 2.46892 12.6947 2.14917 12.1436 1.75114C11.3873 1.20495 10.7463 0.742313 10.2568 0.455237C9.76822 0.168697 9.30198 -0.0272252 8.82227 0.00308837C8.19079 0.0431163 7.60334 0.34025 7.19824 0.825354C6.89 1.19448 6.77479 1.68509 6.7207 2.24625C6.70811 2.37702 6.6998 2.51754 6.69238 2.66715C6.37857 2.4043 5.97169 2.10872 5.47656 1.75114C4.72029 1.20493 4.07929 0.742275 3.58984 0.455237C3.1013 0.168736 2.6359 -0.0271605 2.15625 0.00308837Z" fill="var(--fill-0, #01AF7B)"/>
</g>
</svg>
