<svg preserveAspectRatio="none" width="100%" height="100%" overflow="visible" style="display: block;" viewBox="0 0 21.5001 21.5" fill="none" xmlns="http://www.w3.org/2000/svg">
<g id="elements">
<path id="Vector" d="M15.3457 19.449L12.9009 20.0962C10.638 20.6953 9.50648 20.9949 8.61995 20.5043C7.73341 20.0137 7.43803 18.9245 6.84727 16.7461L5.38521 11.3549C4.79444 9.17651 4.49906 8.08733 5.01854 7.22448C5.53802 6.36163 6.6695 6.06208 8.93244 5.46298L12.9328 4.40391C15.1957 3.80481 16.3272 3.50526 17.2137 3.99588C18.1003 4.4865 18.3957 5.57568 18.9864 7.75406L20.4543 13.1667C20.7055 14.0931 20.8311 14.5563 20.6931 14.9918M15.3457 19.449C16.0978 19.2499 16.1038 19.2467 16.6887 18.7449L19.4325 16.3905C20.1809 15.7484 20.5551 15.4273 20.6931 14.9918M15.3457 19.449C15.3457 19.449 15.9338 14.8559 17.2501 14.2501C18.7433 13.5628 20.6931 14.9918 20.6931 14.9918" stroke="var(--stroke-0, #455968)" stroke-width="1.5" stroke-linejoin="round"/>
<path id="Vector_2" d="M15.7501 3.75126C15.6857 2.67786 15.5074 2.00217 14.9985 1.51769C14.219 0.775608 12.968 0.771911 10.4661 0.764518L6.0433 0.751448C3.54138 0.744054 2.29042 0.740358 1.51544 1.47784C0.740458 2.21533 0.744107 3.406 0.751404 5.78733L0.769465 11.6808C0.776762 14.0621 0.780411 15.2528 1.55993 15.9949C2.33944 16.737 3.5904 16.7407 6.09232 16.7481L6.77314 16.7501" stroke="var(--stroke-0, #455968)" stroke-width="1.5"/>
</g>
</svg>
