<svg preserveAspectRatio="none" width="100%" height="100%" overflow="visible" style="display: block;" viewBox="0 0 16 23" fill="none" xmlns="http://www.w3.org/2000/svg">
<path id="Vector (Stroke)" fill-rule="evenodd" clip-rule="evenodd" d="M2.5 1C1.67614 1 1 1.67614 1 2.5V20.5C1 21.3239 1.67614 22 2.5 22H13.5C14.3239 22 15 21.3239 15 20.5V2.5C15 1.67614 14.3239 1 13.5 1H2.5ZM0 2.5C0 1.12386 1.12386 0 2.5 0H13.5C14.8761 0 16 1.12386 16 2.5V20.5C16 21.8761 14.8761 23 13.5 23H2.5C1.12386 23 0 21.8761 0 20.5V2.5Z" fill="var(--fill-0, #212B31)"/>
</svg>
