<svg preserveAspectRatio="none" width="100%" height="100%" overflow="visible" style="display: block;" viewBox="0 0 15 15" fill="none" xmlns="http://www.w3.org/2000/svg">
<g id="chevron">
<path id="Union" d="M1.7196 9.21987C1.42685 9.51277 1.42675 9.98757 1.7196 10.2804C2.01246 10.5731 2.48731 10.5731 2.78015 10.2804L7.37585 5.68374C7.41528 5.6443 7.4486 5.60095 7.47741 5.55581L7.48522 5.54897L12.2157 10.2804C12.5085 10.5731 12.9834 10.5731 13.2762 10.2804C13.5691 9.98757 13.569 9.51277 13.2762 9.21987L12.6337 8.57729C12.6313 8.57482 12.6293 8.57193 12.6268 8.56948L8.03015 3.9728C7.87999 3.82267 7.68199 3.75024 7.48522 3.75405C7.28857 3.75034 7.09037 3.82273 6.9403 3.9728L2.3446 8.56948C2.30521 8.60889 2.27085 8.65132 2.24206 8.69643L1.7196 9.21987Z" fill="var(--fill-0, #758795)"/>
</g>
</svg>
