<svg preserveAspectRatio="none" width="100%" height="100%" overflow="visible" style="display: block;" viewBox="0 0 20 20" fill="none" xmlns="http://www.w3.org/2000/svg">
<g id="Frame" clip-path="url(#clip0_14856_434121)">
<g id="Vector">
</g>
<path id="Vector_2" d="M11.9086 15.3814V11.6726C11.9086 11.5087 11.8416 11.3515 11.7222 11.2355C11.6029 11.1196 11.441 11.0545 11.2723 11.0545H8.72681C8.55803 11.0545 8.39617 11.1196 8.27683 11.2355C8.15749 11.3515 8.09044 11.5087 8.09044 11.6726V15.3814C8.09044 15.5453 8.02341 15.7025 7.90408 15.8184C7.78476 15.9344 7.62292 15.9995 7.45416 15.9995L3.63644 16C3.55287 16 3.47011 15.984 3.39289 15.953C3.31568 15.9219 3.24551 15.8764 3.18641 15.819C3.12731 15.7616 3.08043 15.6934 3.04845 15.6184C3.01646 15.5434 3 15.4631 3 15.3819V8.23795C3 8.15184 3.01853 8.06667 3.05439 7.98791C3.09025 7.90916 3.14266 7.83855 3.20826 7.78062L9.57146 2.16078C9.68859 2.05733 9.84122 2.00001 9.99954 2C10.1579 1.99999 10.3105 2.05731 10.4276 2.16076L16.7917 7.78061C16.8573 7.83855 16.9097 7.90916 16.9456 7.98792C16.9815 8.06668 17 8.15185 17 8.23798V15.3819C17 15.4631 16.9835 15.5434 16.9516 15.6184C16.9196 15.6934 16.8727 15.7616 16.8136 15.819C16.7545 15.8764 16.6843 15.9219 16.6071 15.953C16.5299 15.984 16.4471 16 16.3636 16L12.5449 15.9995C12.3761 15.9995 12.2143 15.9344 12.095 15.8184C11.9757 15.7025 11.9086 15.5453 11.9086 15.3814V15.3814Z" stroke="var(--stroke-0, white)" stroke-width="1.5" stroke-linecap="round" stroke-linejoin="round"/>
</g>
<defs>
<clipPath id="clip0_14856_434121">
<rect width="20" height="20" fill="white"/>
</clipPath>
</defs>
</svg>
