<svg preserveAspectRatio="none" width="100%" height="100%" overflow="visible" style="display: block;" viewBox="0 0 3.52461 15.5" fill="none" xmlns="http://www.w3.org/2000/svg">
<g id="elements">
<path id="Vector (Stroke)" fill-rule="evenodd" clip-rule="evenodd" d="M0.0078125 7.75C0.0078125 6.7835 0.791314 6 1.75781 6H1.76679C2.73329 6 3.51679 6.7835 3.51679 7.75C3.51679 8.7165 2.73329 9.5 1.76679 9.5H1.75781C0.791314 9.5 0.0078125 8.7165 0.0078125 7.75Z" fill="var(--fill-0, #212B31)"/>
<path id="Vector (Stroke)_2" fill-rule="evenodd" clip-rule="evenodd" d="M0 13.75C0 12.7835 0.783502 12 1.75 12H1.75898C2.72548 12 3.50898 12.7835 3.50898 13.75C3.50898 14.7165 2.72548 15.5 1.75898 15.5H1.75C0.783502 15.5 0 14.7165 0 13.75Z" fill="var(--fill-0, #212B31)"/>
<path id="Vector (Stroke)_3" fill-rule="evenodd" clip-rule="evenodd" d="M0.015625 1.75C0.015625 0.783502 0.799127 0 1.76562 0H1.77461C2.74111 0 3.52461 0.783502 3.52461 1.75C3.52461 2.7165 2.74111 3.5 1.77461 3.5H1.76562C0.799127 3.5 0.015625 2.7165 0.015625 1.75Z" fill="var(--fill-0, #212B31)"/>
</g>
</svg>
