<svg preserveAspectRatio="none" width="100%" height="100%" overflow="visible" style="display: block;" viewBox="0 0 10.3126 10.3126" fill="none" xmlns="http://www.w3.org/2000/svg">
<g id="Group">
<path id="Subtract" d="M8.90625 0C9.68291 0 10.3125 0.629591 10.3125 1.40625V8.90625C10.3125 9.68291 9.68291 10.3125 8.90625 10.3125C8.12963 10.3125 7.5 9.68291 7.5 8.90625V4.80078L2.40039 9.90039C1.85122 10.4496 0.961279 10.4496 0.412109 9.90039C-0.137073 9.35123 -0.137074 8.46127 0.412109 7.91211L5.51172 2.8125H1.40625C0.629627 2.8125 0 2.18291 0 1.40625C6.04009e-08 0.629591 0.629627 0 1.40625 0H8.90625ZM1.40625 7.91016C0.856211 7.91022 0.410217 8.35621 0.410156 8.90625C0.410156 9.45634 0.856174 9.90228 1.40625 9.90234C1.95638 9.90234 2.40234 9.45638 2.40234 8.90625C2.40228 8.35617 1.95634 7.91016 1.40625 7.91016ZM8.90625 7.91016C8.35621 7.91022 7.91022 8.35621 7.91016 8.90625C7.91016 9.45634 8.35617 9.90228 8.90625 9.90234C9.45638 9.90234 9.90234 9.45638 9.90234 8.90625C9.90228 8.35617 9.45634 7.91016 8.90625 7.91016ZM1.40625 0.410156C0.856211 0.410216 0.410216 0.856211 0.410156 1.40625C0.410156 1.95634 0.856174 2.40228 1.40625 2.40234C1.95638 2.40234 2.40234 1.95638 2.40234 1.40625C2.40228 0.856174 1.95634 0.410156 1.40625 0.410156Z" fill="var(--fill-0, #EB3D3D)"/>
</g>
</svg>
