<svg preserveAspectRatio="none" width="100%" height="100%" overflow="visible" style="display: block;" viewBox="0 0 5.76619 12.1378" fill="none" xmlns="http://www.w3.org/2000/svg">
<g id="Group 2492">
<path id="Subtract" d="M4.18262 0.0112898C4.95303 -0.0863006 5.6572 0.459613 5.75488 1.23004C5.8524 2.00041 5.30652 2.70365 4.53613 2.80133C4.33978 2.82623 4.17073 2.85691 4.02539 2.89117C3.42105 3.03371 3.25509 3.22592 3.13477 3.47711C2.93969 3.88435 2.81251 4.62627 2.8125 6.06891C2.8125 7.51132 2.93977 8.25338 3.13477 8.6607C3.2551 8.91193 3.42092 9.10507 4.02539 9.24762C4.17072 9.28188 4.3398 9.31159 4.53613 9.33649C5.30661 9.43418 5.85257 10.1383 5.75488 10.9088C5.65707 11.6791 4.95296 12.2241 4.18262 12.1265C3.90684 12.0916 3.63885 12.0457 3.38086 11.9849C2.15041 11.6949 1.16792 11.0646 0.598633 9.87652C0.104107 8.84414 0 7.52846 0 6.06891C9.86217e-06 4.60944 0.10413 3.2946 0.598633 2.26227C1.16789 1.07391 2.15025 0.443977 3.38086 0.153868C3.63889 0.0930523 3.9068 0.0462612 4.18262 0.0112898ZM4.37109 0.422423C3.82097 0.422423 3.375 0.868389 3.375 1.41852C3.37514 1.96853 3.82105 2.41461 4.37109 2.41461C4.92114 2.41461 5.36705 1.96853 5.36719 1.41852C5.36719 0.868389 4.92122 0.422423 4.37109 0.422423Z" fill="var(--fill-0, #00B4BB)"/>
</g>
</svg>
