<svg preserveAspectRatio="none" width="100%" height="100%" overflow="visible" style="display: block;" viewBox="0 0 12.0002 13.1687" fill="none" xmlns="http://www.w3.org/2000/svg">
<g id="elements">
<path id="Ellipse 1699 (Stroke)" d="M5.16667 1.5C5.16667 0.671573 4.4951 0 3.66667 0C2.83825 0 2.16667 0.671573 2.16667 1.5C2.16667 2.32843 2.83825 3 3.66667 3C4.4951 3 5.16667 2.32843 5.16667 1.5Z" fill="var(--fill-0, #635BFF)"/>
<path id="Vector 5412 (Stroke)" d="M2.48295 5.77941C2.96912 5.83151 3.40877 5.74071 3.78781 5.57693L5.47561 8.14354L4.85176 8.75789C4.33845 9.26338 3.97328 9.8978 3.79658 10.5938L3.35384 12.3378C3.26324 12.6947 3.4791 13.0574 3.83597 13.148C4.19283 13.2386 4.55558 13.0227 4.64618 12.6659L5.08892 10.9219C5.20527 10.4636 5.44622 10.0438 5.7873 9.70791L6.77484 8.73542C7.08825 8.48853 7.36001 8.27427 7.56669 8.07622C7.78792 7.86422 7.9829 7.62697 8.09692 7.31709C8.18387 7.08075 8.22541 6.83012 8.21936 6.57837C8.21141 6.24827 8.1034 5.96081 7.96239 5.68877C7.82994 5.43325 7.52818 4.96766 7.30969 4.63056C7.70887 4.71447 8.02639 4.83565 8.28563 4.98331C8.77083 5.25967 9.1138 5.664 9.40556 6.2387C9.57223 6.567 9.97349 6.69803 10.3018 6.53136C10.6301 6.36469 10.7611 5.96343 10.5945 5.63512C10.2196 4.89666 9.71663 4.26394 8.94555 3.82474C8.18553 3.39183 7.22865 3.18336 6.00789 3.16892C5.85776 3.16715 5.6174 3.16663 5.40034 3.16667C5.24911 3.16668 5.10018 3.16668 4.97305 3.17657C4.83216 3.18752 4.66768 3.21326 4.49901 3.29206C4.31549 3.3778 4.17759 3.50951 4.07749 3.61484C3.97727 3.72029 3.86258 3.85735 3.73573 4.00892C3.66874 4.08897 3.61398 4.14244 3.60005 4.15289C3.31207 4.36884 2.98269 4.49199 2.62502 4.45366C2.26852 4.41546 1.76917 4.20451 1.16504 3.52458C0.920481 3.24934 0.499105 3.22447 0.223866 3.46903C-0.0513718 3.71358 -0.0762456 4.13496 0.168311 4.4102C0.922398 5.25889 1.7048 5.69602 2.48295 5.77941Z" fill="var(--fill-0, #635BFF)"/>
<path id="Vector 5411 (Stroke)" fill-rule="evenodd" clip-rule="evenodd" d="M7.68993 8.5765C7.36399 8.74775 7.23859 9.1508 7.40984 9.47674C8.09004 10.7713 9.60252 11.4172 11.0355 11.0763L11.4876 10.9687C11.8458 10.8835 12.0671 10.5241 11.9819 10.1659C11.8967 9.80768 11.5372 9.58639 11.179 9.67161L10.7269 9.77918C9.85532 9.98653 8.97232 9.58392 8.59017 8.85659C8.41892 8.53065 8.01587 8.40525 7.68993 8.5765Z" fill="var(--fill-0, #635BFF)"/>
</g>
</svg>
