<svg preserveAspectRatio="none" width="100%" height="100%" overflow="visible" style="display: block;" viewBox="0 0 14.334 10.334" fill="none" xmlns="http://www.w3.org/2000/svg">
<g id="elements">
<path id="Subtract" d="M7.16699 0C8.88062 1.83622e-07 10.3493 0.754914 11.4863 1.64258C12.6244 2.53109 13.466 3.58038 13.9365 4.24023L13.9727 4.28906C14.1414 4.52378 14.334 4.79219 14.334 5.16699C14.334 5.54179 14.1414 5.8102 13.9727 6.04492L13.9365 6.09375C13.466 6.7536 12.6244 7.80289 11.4863 8.69141C10.3493 9.57907 8.88062 10.334 7.16699 10.334C5.45337 10.334 3.98473 9.57907 2.84766 8.69141C1.70954 7.80289 0.86803 6.7536 0.397461 6.09375L0.361328 6.04492C0.192557 5.8102 4.08459e-08 5.5418 0 5.16699C0 4.79219 0.192557 4.52378 0.361328 4.28906L0.397461 4.24023C0.86803 3.58038 1.70954 2.53109 2.84766 1.64258C3.98473 0.754914 5.45337 0 7.16699 0ZM7.16699 2.83398C5.87833 2.83398 4.83398 3.87833 4.83398 5.16699C4.83398 6.45566 5.87833 7.5 7.16699 7.5C8.45566 7.5 9.5 6.45566 9.5 5.16699C9.5 3.87833 8.45566 2.83398 7.16699 2.83398Z" fill="var(--fill-0, #D97706)"/>
</g>
</svg>
