<svg preserveAspectRatio="none" width="100%" height="100%" overflow="visible" style="display: block;" viewBox="0 0 17.865 9.44571" fill="none" xmlns="http://www.w3.org/2000/svg">
<g id="Group">
<path id="Vector" d="M12.0129 0.415969C11.4637 -0.13321 10.5733 -0.13321 10.0241 0.415969L4.38936 6.05072L2.40062 4.06199C1.85144 3.51281 0.961048 3.51281 0.41188 4.06199C-0.137289 4.61115 -0.137298 5.50154 0.41188 6.05072L3.39499 9.03383C3.94416 9.58301 4.83456 9.58299 5.38373 9.03383L12.0129 2.4047C12.562 1.85552 12.562 0.965125 12.0129 0.415969ZM11.0185 2.40642C10.4684 2.40642 10.0224 1.96044 10.0224 1.41032C10.0224 0.860183 10.4684 0.414229 11.0185 0.414229C11.5686 0.414229 12.0146 0.860183 12.0146 1.41032C12.0146 1.96044 11.5686 2.40642 11.0185 2.40642Z" fill="var(--fill-0, #FF7033)"/>
<path id="Vector_2" d="M15.4643 0.411876L7.84084 8.03538L8.83521 9.02974C9.38439 9.57892 10.2748 9.57892 10.8239 9.02974L17.4531 2.40061C18.0023 1.85145 18.0023 0.961055 17.4531 0.411876C16.9039 -0.137303 16.0135 -0.137281 15.4643 0.411876ZM17.4548 1.40625C17.4548 1.95637 17.0088 2.40235 16.4587 2.40235C15.9086 2.40235 15.4626 1.95637 15.4626 1.40625C15.4626 0.856113 15.9086 0.410159 16.4587 0.410159C17.0088 0.410159 17.4548 0.856113 17.4548 1.40625Z" fill="var(--fill-0, #FF7033)"/>
</g>
</svg>
