<svg preserveAspectRatio="none" width="100%" height="100%" overflow="visible" style="display: block;" viewBox="0 0 20.5 20.5" fill="none" xmlns="http://www.w3.org/2000/svg">
<g id="elements">
<path id="Rectangle 2261" d="M16.104 10.41C15.721 10.8605 15.0131 10.8638 14.5665 10.4171L10.0829 5.93351C9.63621 5.48686 9.63952 4.779 10.09 4.39596L11.321 3.34939C12.2059 2.59704 13.2849 2.09824 14.4544 1.9009L15.1794 1.77858C15.864 1.66306 16.5839 1.90221 17.0975 2.41577L18.0842 3.40255C18.5978 3.91611 18.8369 4.63601 18.7214 5.32063L18.5991 6.04559C18.4018 7.2151 17.903 8.29412 17.1506 9.17901L16.104 10.41Z" stroke="var(--stroke-0, #212B31)" stroke-width="1.5"/>
<path id="Vector 7904" d="M17.75 2.75L19.75 0.75" stroke="var(--stroke-0, #212B31)" stroke-width="1.5" stroke-linecap="round" stroke-linejoin="round"/>
<path id="Vector 7905" d="M0.75 19.75L2.75 17.75" stroke="var(--stroke-0, #212B31)" stroke-width="1.5" stroke-linecap="round" stroke-linejoin="round"/>
<path id="Rectangle 2262" d="M4.39596 10.09C4.77901 9.63952 5.48686 9.63621 5.93351 10.0829L10.4171 14.5665C10.8638 15.0131 10.8605 15.721 10.41 16.104L9.17901 17.1506C8.29412 17.903 7.2151 18.4018 6.04559 18.5991L5.32063 18.7214C4.63601 18.8369 3.91611 18.5978 3.40255 18.0842L2.41577 17.0975C1.90221 16.5839 1.66306 15.864 1.77858 15.1794L1.9009 14.4544C2.09824 13.2849 2.59704 12.2059 3.34939 11.321L4.39596 10.09Z" stroke="var(--stroke-0, #212B31)" stroke-width="1.5"/>
<path id="Vector 7906" d="M6.75 10.75L8.75 8.75M9.75 13.75L11.75 11.75" stroke="var(--stroke-0, #212B31)" stroke-width="1.5" stroke-linecap="round" stroke-linejoin="round"/>
</g>
</svg>
