<svg preserveAspectRatio="none" width="100%" height="100%" overflow="visible" style="display: block;" viewBox="0 0 14.6667 14.6667" fill="none" xmlns="http://www.w3.org/2000/svg">
<g id="elements">
<path id="Ellipse 1990 (Stroke)" fill-rule="evenodd" clip-rule="evenodd" d="M4.4956 11.1892C4.85144 11.0946 5.21657 11.3064 5.31113 11.6623C5.53773 12.5149 6.34714 13.1668 7.3335 13.1668C8.31985 13.1668 9.12927 12.5149 9.35586 11.6623C9.45043 11.3064 9.81555 11.0946 10.1714 11.1892C10.5272 11.2838 10.739 11.6489 10.6445 12.0047C10.2597 13.4524 8.9131 14.5002 7.3335 14.5002C5.75389 14.5002 4.40725 13.4524 4.02253 12.0047C3.92796 11.6489 4.13977 11.2838 4.4956 11.1892Z" fill="var(--fill-0, #D97706)"/>
<path id="Vector" d="M2.22497 11.2288C1.36704 10.8744 0.505575 10.0833 0.692451 8.86139C0.74973 8.48688 0.916348 8.16547 1.08689 7.89894C1.18352 7.74792 1.3109 7.57356 1.42194 7.42159C1.48586 7.3341 1.54438 7.25399 1.58847 7.19006C1.90559 6.72349 1.95184 6.20437 1.9519 5.51658C1.95191 4.49732 2.23836 3.54492 2.73545 2.73438L11.5518 11.5507C8.63782 12.4662 4.95986 12.3589 2.22497 11.2288Z" fill="var(--fill-0, #D97706)"/>
<path id="Vector_2" d="M7.33266 0.166667C10.3032 0.166667 12.7141 2.56103 12.7141 5.51802C12.7142 6.20585 12.7604 6.72492 13.0776 7.19151C13.1216 7.25534 13.1803 7.33567 13.2441 7.42298C13.3551 7.57496 13.4825 7.74932 13.5791 7.90034C13.7496 8.16687 13.9163 8.48828 13.9735 8.86279C14.0686 9.484 13.8926 9.99386 13.5839 10.3916C13.4333 10.5857 13.358 10.6827 13.2078 10.6921C13.0576 10.7016 12.9539 10.5978 12.7464 10.3904L4.32887 1.97285C4.08564 1.72961 3.96402 1.60799 3.98068 1.44983C3.99733 1.29167 4.13018 1.20548 4.39587 1.03309C5.24052 0.485087 6.24938 0.166667 7.33266 0.166667Z" fill="var(--fill-0, #D97706)"/>
<path id="Vector 3475 (Stroke)" fill-rule="evenodd" clip-rule="evenodd" d="M0.195262 0.195262C0.455612 -0.0650874 0.877722 -0.0650874 1.13807 0.195262L14.4714 13.5286C14.7318 13.7889 14.7318 14.2111 14.4714 14.4714C14.2111 14.7318 13.7889 14.7318 13.5286 14.4714L0.195262 1.13807C-0.0650874 0.877722 -0.0650874 0.455612 0.195262 0.195262Z" fill="var(--fill-0, #D97706)"/>
</g>
</svg>
