<svg preserveAspectRatio="none" width="100%" height="100%" overflow="visible" style="display: block;" viewBox="0 0 13.3334 10.6667" fill="none" xmlns="http://www.w3.org/2000/svg">
<g id="elements">
<g id="Union">
<path d="M0.666687 9.33333C0.298497 9.33333 2.03252e-05 9.63181 2.03252e-05 10C2.03252e-05 10.3682 0.298497 10.6667 0.666687 10.6667H2.66669C3.03488 10.6667 3.33335 10.3682 3.33335 10C3.33335 9.63181 3.03488 9.33333 2.66669 9.33333H0.666687Z" fill="var(--fill-0, #E10001)"/>
<path d="M5.00002 10C5.00002 9.63181 5.2985 9.33333 5.66669 9.33333H7.66669C8.03488 9.33333 8.33335 9.63181 8.33335 10C8.33335 10.3682 8.03488 10.6667 7.66669 10.6667L5.66669 10.6667C5.2985 10.6667 5.00002 10.3682 5.00002 10Z" fill="var(--fill-0, #E10001)"/>
<path d="M10 10C10 9.63181 10.2985 9.33333 10.6667 9.33333H12.6667C13.0349 9.33333 13.3334 9.63181 13.3334 10C13.3334 10.3682 13.0349 10.6667 12.6667 10.6667L10.6667 10.6667C10.2985 10.6667 10 10.3682 10 10Z" fill="var(--fill-0, #E10001)"/>
</g>
<path id="Vector (Stroke)" fill-rule="evenodd" clip-rule="evenodd" d="M3.19528 0.195262C3.45563 -0.0650874 3.87774 -0.0650874 4.13809 0.195262L6.33335 2.39052L8.52862 0.195262C8.78896 -0.0650874 9.21108 -0.0650874 9.47142 0.195262C9.73177 0.455612 9.73177 0.877722 9.47142 1.13807L7.27616 3.33333L9.47142 5.5286C9.73177 5.78895 9.73177 6.21105 9.47142 6.4714C9.21108 6.73175 8.78896 6.73175 8.52862 6.4714L6.33335 4.27614L4.13809 6.4714C3.87774 6.73175 3.45563 6.73175 3.19528 6.4714C2.93493 6.21105 2.93493 5.78895 3.19528 5.5286L5.39054 3.33333L3.19528 1.13807C2.93493 0.877722 2.93493 0.455612 3.19528 0.195262Z" fill="var(--fill-0, #E10001)"/>
</g>
</svg>
