<svg preserveAspectRatio="none" width="100%" height="100%" overflow="visible" style="display: block;" viewBox="0 0 21.5 19.5001" fill="none" xmlns="http://www.w3.org/2000/svg">
<g id="elements">
<path id="Vector" d="M5.75 4.75008H15.5C17.6067 4.75008 18.66 4.75008 19.4167 5.25567C19.7443 5.47455 20.0255 5.7558 20.2444 6.08337C20.75 6.84004 20.75 7.89339 20.75 10.0001C20.75 13.5112 20.75 15.2668 19.9073 16.5279C19.5426 17.0739 19.0738 17.5426 18.5279 17.9074C17.2667 18.7501 15.5112 18.7501 12 18.7501H10.75C6.03596 18.7501 3.67893 18.7501 2.21447 17.2856C0.75 15.8211 0.75 13.4641 0.75 8.75008V5.69435C0.75 3.87788 0.75 2.96964 1.13032 2.28814C1.40142 1.80235 1.80227 1.4015 2.28806 1.1304C2.96956 0.75008 3.8778 0.75008 5.69427 0.75008C6.85802 0.75008 7.4399 0.75008 7.94926 0.941087C9.11223 1.3772 9.59179 2.43365 10.1166 3.48321L10.75 4.75008" stroke="var(--stroke-0, #455968)" stroke-width="1.5" stroke-linecap="round"/>
</g>
</svg>
