<svg preserveAspectRatio="none" width="100%" height="100%" overflow="visible" style="display: block;" viewBox="0 0 18.6094 7.73462" fill="none" xmlns="http://www.w3.org/2000/svg">
<g id="Group">
<path id="Vector" d="M5.84777 3.85931L7.30617 2.40091C7.85535 1.85173 7.85535 0.961344 7.30617 0.41217V0.412168C6.757 -0.137006 5.86661 -0.137006 5.31744 0.412168L3.85903 1.87058L2.40062 0.412168C1.85144 -0.137006 0.961059 -0.137006 0.411886 0.412168L0.41188 0.41217C-0.137293 0.961344 -0.137293 1.85173 0.41188 2.40091L1.87029 3.85931L0.41188 5.31772C-0.137293 5.8669 -0.137293 6.75729 0.41188 7.30646L0.411886 7.30646C0.961059 7.85564 1.85144 7.85564 2.40062 7.30646L3.85903 5.84805L5.31744 7.30646C5.86661 7.85564 6.757 7.85564 7.30617 7.30646V7.30646C7.85535 6.75729 7.85535 5.8669 7.30617 5.31772L5.84777 3.85931Z" fill="var(--fill-0, #01AF7B)"/>
<path id="Vector_2" d="M18.1975 0.411882L18.1975 0.411881C17.6483 -0.137294 16.7579 -0.137294 16.2088 0.411881L12.281 4.33964L11.1209 3.17954C10.5717 2.63036 9.68134 2.63036 9.13216 3.17954L9.13216 3.17954C8.58299 3.72871 8.58299 4.6191 9.13216 5.16827L11.2866 7.32274V7.32274C11.8358 7.87192 12.7262 7.87192 13.2754 7.32274L18.1975 2.40062C18.7467 1.85144 18.7467 0.961057 18.1975 0.411882ZM17.2031 2.40234C16.653 2.40234 16.207 1.95638 16.207 1.40625C16.207 0.856123 16.653 0.410157 17.2031 0.410157C17.7533 0.410157 18.1992 0.856123 18.1992 1.40625C18.1992 1.95638 17.7533 2.40234 17.2031 2.40234Z" fill="var(--fill-0, #01AF7B)"/>
</g>
</svg>
