<svg preserveAspectRatio="none" width="100%" height="100%" overflow="visible" style="display: block;" viewBox="0 0 13.3334 13.3335" fill="none" xmlns="http://www.w3.org/2000/svg">
<g id="elements">
<path id="Rectangle 1702 (Stroke)" fill-rule="evenodd" clip-rule="evenodd" d="M6.73357 0.665466C6.73423 1.03366 6.43629 1.33267 6.06811 1.33333C4.84054 1.33554 3.96837 1.35297 3.30563 1.46025C2.66237 1.56437 2.29074 1.74255 2.01686 2.01643C1.72202 2.31127 1.53721 2.72037 1.43731 3.46341C1.33483 4.22563 1.33342 5.23339 1.33342 6.66649C1.33342 8.09959 1.33483 9.10735 1.43731 9.86957C1.53721 10.6126 1.72202 11.0217 2.01686 11.3166C2.3117 11.6114 2.7208 11.7962 3.46384 11.8961C4.22606 11.9986 5.23382 12 6.66692 12C8.10002 12 9.10778 11.9986 9.87 11.8961C10.613 11.7962 11.0221 11.6114 11.317 11.3166C11.5909 11.0427 11.769 10.671 11.8732 10.0278C11.9804 9.36504 11.9979 8.49287 12.0001 7.26531C12.0007 6.89712 12.2998 6.59918 12.668 6.59985C13.0361 6.60051 13.3341 6.89952 13.3334 7.26771C13.3312 8.47326 13.3166 9.45469 13.1894 10.2408C13.059 11.0465 12.8002 11.719 12.2598 12.2594C11.6759 12.8432 10.9386 13.0978 10.0477 13.2176C9.18626 13.3334 8.08864 13.3333 6.71632 13.3333H6.61756C5.24522 13.3333 4.14759 13.3334 3.28618 13.2175C2.39529 13.0978 1.65791 12.8432 1.07405 12.2594C0.490184 11.6755 0.235642 10.9381 0.115865 10.0472C5.21938e-05 9.18583 6.55471e-05 8.0882 8.22364e-05 6.71587L8.23954e-05 6.61711C6.60239e-05 5.24478 5.3068e-05 4.14716 0.115866 3.28575C0.235644 2.39486 0.490186 1.65748 1.07405 1.07362C1.61442 0.533255 2.28695 0.274449 3.09258 0.144046C3.87872 0.0167982 4.86016 0.00217214 6.0657 1.10465e-06C6.43389 -0.000661977 6.73291 0.297277 6.73357 0.665466Z" fill="var(--fill-0, #212B31)"/>
<path id="Vector (Stroke)" d="M9.75193 0.0397963C10.3375 0.00542675 11.5041 -0.0447521 12.2016 0.0787685C12.4882 0.129521 12.7378 0.267341 12.9241 0.465823L12.93 0.472081C13.095 0.650288 13.2095 0.876558 13.2547 1.13214C13.3781 1.82945 13.328 2.99581 13.2937 3.58143C13.2484 4.35453 12.3225 4.67133 11.7987 4.1476L10.9782 3.32705L9.15456 5.13677C8.88903 5.40028 8.46016 5.39864 8.19665 5.13311C7.93314 4.86759 7.93478 4.43872 8.20031 4.17521L10.0202 2.36914L9.18583 1.53474C8.66214 1.01105 8.97885 0.0851685 9.75193 0.0397963Z" fill="var(--fill-0, #212B31)"/>
</g>
</svg>
