<svg preserveAspectRatio="none" width="100%" height="100%" overflow="visible" style="display: block;" viewBox="0 0 13.3333 13.3333" fill="none" xmlns="http://www.w3.org/2000/svg">
<g id="elements">
<path id="Rectangle 1702 (Stroke)" fill-rule="evenodd" clip-rule="evenodd" d="M6.73349 0.665466C6.73415 1.03366 6.43621 1.33267 6.06802 1.33333C4.84046 1.33554 3.96829 1.35297 3.30555 1.46025C2.66229 1.56437 2.29066 1.74255 2.01678 2.01643C1.72194 2.31127 1.53713 2.72037 1.43723 3.46341C1.33475 4.22563 1.33333 5.23339 1.33333 6.66649C1.33333 8.09959 1.33475 9.10735 1.43723 9.86957C1.53713 10.6126 1.72194 11.0217 2.01678 11.3166C2.31162 11.6114 2.72072 11.7962 3.46376 11.8961C4.22598 11.9986 5.23374 12 6.66684 12C8.09994 12 9.1077 11.9986 9.86992 11.8961C10.613 11.7962 11.0221 11.6114 11.3169 11.3166C11.5908 11.0427 11.769 10.671 11.8731 10.0278C11.9804 9.36504 11.9978 8.49287 12 7.26531C12.0007 6.89712 12.2997 6.59918 12.6679 6.59985C13.0361 6.60051 13.334 6.89952 13.3333 7.26771C13.3312 8.47326 13.3165 9.45469 13.1893 10.2408C13.0589 11.0465 12.8001 11.719 12.2597 12.2594C11.6758 12.8432 10.9385 13.0978 10.0476 13.2176C9.18618 13.3334 8.08856 13.3333 6.71624 13.3333H6.61748C5.24514 13.3333 4.14751 13.3334 3.2861 13.2175C2.39521 13.0978 1.65783 12.8432 1.07397 12.2594C0.490102 11.6755 0.23556 10.9381 0.115783 10.0472C-2.96434e-05 9.18583 -1.62901e-05 8.0882 3.99234e-07 6.71587L5.58179e-07 6.61711C-1.58132e-05 5.24478 -2.87692e-05 4.14716 0.115784 3.28575C0.235562 2.39486 0.490104 1.65748 1.07397 1.07362C1.61433 0.533255 2.28687 0.274449 3.0925 0.144046C3.87864 0.0167982 4.86007 0.00217214 6.06562 1.10465e-06C6.43381 -0.000661977 6.73283 0.297277 6.73349 0.665466Z" fill="var(--fill-0, #212B31)"/>
<path id="Vector (Stroke)" d="M9.75185 0.0397963C10.3375 0.00542675 11.504 -0.0447521 12.2015 0.0787685C12.4881 0.129521 12.7377 0.267341 12.9241 0.465823L12.9299 0.472081C13.095 0.650288 13.2094 0.876558 13.2546 1.13214C13.378 1.82945 13.3279 2.99581 13.2936 3.58143C13.2483 4.35453 12.3224 4.67133 11.7986 4.1476L10.9781 3.32705L9.15448 5.13677C8.88895 5.40028 8.46008 5.39864 8.19657 5.13311C7.93306 4.86759 7.93469 4.43872 8.20022 4.17521L10.0202 2.36914L9.18575 1.53474C8.66206 1.01105 8.97877 0.0851685 9.75185 0.0397963Z" fill="var(--fill-0, #212B31)"/>
</g>
</svg>
