<svg preserveAspectRatio="none" width="100%" height="100%" overflow="visible" style="display: block;" viewBox="0 0 20.5023 21.5" fill="none" xmlns="http://www.w3.org/2000/svg">
<g id="elements">
<path id="Vector" d="M0.78107 13.5196C0.568416 14.9136 1.51915 15.8812 2.6832 16.3634C7.14596 18.2122 13.3563 18.2122 17.8191 16.3634C18.9831 15.8812 19.9339 14.9136 19.7212 13.5196C19.5905 12.6629 18.9443 11.9495 18.4655 11.2529C17.8384 10.3293 17.7761 9.32183 17.776 8.25C17.776 4.10786 14.407 0.75 10.2511 0.75C6.09528 0.75 2.72627 4.10786 2.72627 8.25C2.72618 9.32183 2.66387 10.3293 2.03676 11.2529C1.55799 11.9495 0.91176 12.6629 0.78107 13.5196Z" stroke="var(--stroke-0, white)" stroke-width="1.5" stroke-linecap="round" stroke-linejoin="round"/>
<path id="Ellipse 1990" d="M6.25115 17.75C6.70963 19.4752 8.32668 20.75 10.2511 20.75C12.1756 20.75 13.7927 19.4752 14.2511 17.75" stroke="var(--stroke-0, white)" stroke-width="1.5" stroke-linecap="round" stroke-linejoin="round"/>
</g>
</svg>
