<svg preserveAspectRatio="none" width="100%" height="100%" overflow="visible" style="display: block;" viewBox="0 0 8.99975 13" fill="none" xmlns="http://www.w3.org/2000/svg">
<g id="elements">
<path id="Vector 3733 (Stroke)" d="M5.39892 0.0840836C5.78022 0.254735 6.02687 0.650213 6.02687 1.11026V5.28199C6.02687 5.33772 6.04612 5.37443 6.05953 5.39033L6.06011 5.391H7.98541C8.47051 5.391 8.79152 5.73262 8.92052 6.07107C9.05031 6.41159 9.03371 6.84814 8.77244 7.20029L4.77344 12.59C4.47743 12.989 4.00084 13.095 3.60087 12.916C3.21957 12.7453 2.97293 12.3498 2.97293 11.8898V7.71806C2.97293 7.66232 2.95367 7.62562 2.94027 7.60972L2.93969 7.60904H1.01439C0.52929 7.60904 0.208279 7.26743 0.0792764 6.92897C-0.0505136 6.58845 -0.033916 6.1519 0.227361 5.79976L4.22636 0.409997C4.52236 0.0110508 4.99896 -0.0949211 5.39892 0.0840836Z" fill="var(--fill-0, #01AF7B)"/>
</g>
</svg>
