<svg preserveAspectRatio="none" width="100%" height="100%" overflow="visible" style="display: block;" viewBox="0 0 14.3334 14.3334" fill="none" xmlns="http://www.w3.org/2000/svg">
<g id="elements">
<path id="Rectangle 2088" d="M12.197 10.1357C13.2879 10.7248 13.8334 11.0193 13.8334 11.5001C13.8334 11.9808 13.2879 12.2754 12.197 12.8645L11.4541 13.2657C10.6163 13.7181 10.1974 13.9443 9.99598 13.7798C9.50268 13.377 10.2712 12.3375 10.4602 11.9692C10.6518 11.5961 10.6484 11.3973 10.4602 11.0309C10.2712 10.6627 9.50268 9.62313 9.99598 9.22032C10.1974 9.05585 10.6163 9.28207 11.4541 9.7345L12.197 10.1357Z" fill="var(--fill-0, white)"/>
<path id="Path (Stroke)" fill-rule="evenodd" clip-rule="evenodd" d="M7.16669 3.83341C7.53488 3.83341 7.83335 4.13189 7.83335 4.50008V6.89061L8.63809 7.69534C8.89844 7.95569 8.89844 8.3778 8.63809 8.63815C8.37774 8.8985 7.95563 8.8985 7.69528 8.63815L6.69528 7.63815C6.57026 7.51313 6.50002 7.34356 6.50002 7.16675V4.50008C6.50002 4.13189 6.7985 3.83341 7.16669 3.83341Z" fill="var(--fill-0, #635BFF)"/>
<path id="Rectangle 2087 (Stroke)" d="M11.6616 9.27829L12.4716 9.71571C12.9854 9.99314 13.4229 10.2294 13.7269 10.4605C14.0459 10.703 14.3334 11.0263 14.3334 11.5001C14.3334 11.9739 14.0459 12.2971 13.7269 12.5397C13.4229 12.7708 12.9854 13.007 12.4716 13.2844L12.4716 13.2845L11.6616 13.7219C11.2684 13.9342 10.9326 14.1156 10.6699 14.2192C10.5343 14.2727 10.3802 14.3214 10.2228 14.3315C10.0532 14.3423 9.85322 14.3088 9.67973 14.1671C9.40238 13.9406 9.32469 13.6292 9.33413 13.3612C9.343 13.1096 9.4268 12.8631 9.51332 12.6631C9.6026 12.4567 9.71322 12.2588 9.80692 12.0985C9.8449 12.0336 9.87776 11.9785 9.90607 11.931L9.90607 11.931C9.9552 11.8486 9.99064 11.7892 10.0154 11.7409C10.0971 11.5818 10.1027 11.5235 10.1026 11.4991C10.1026 11.4742 10.0964 11.417 10.0154 11.2593C9.99064 11.211 9.9552 11.1515 9.90606 11.0692L9.90606 11.0692C9.87775 11.0217 9.8449 10.9666 9.80692 10.9016C9.71322 10.7414 9.6026 10.5435 9.51332 10.3371C9.4268 10.1371 9.343 9.89061 9.33413 9.63898C9.32469 9.37098 9.40238 9.05951 9.67973 8.83304C9.85322 8.69137 10.0532 8.65784 10.2228 8.66867C10.3802 8.67871 10.5343 8.72748 10.6699 8.78095C10.9326 8.88459 11.2684 9.06593 11.6616 9.27828L11.6616 9.27829Z" fill="var(--fill-0, #635BFF)"/>
<path id="Vector (Stroke)" fill-rule="evenodd" clip-rule="evenodd" d="M7.16669 1.30311C3.92829 1.30311 1.30305 3.92835 1.30305 7.16675C1.30305 10.4051 3.92829 13.0304 7.16669 13.0304C7.37029 13.0304 7.57127 13.02 7.76915 12.9999C8.12712 12.9634 8.44689 13.224 8.48337 13.582C8.51986 13.9399 8.25925 14.2597 7.90128 14.2962C7.65957 14.3208 7.41449 14.3334 7.16669 14.3334C3.20865 14.3334 2.0355e-05 11.1248 2.0355e-05 7.16675C2.0355e-05 3.20871 3.20865 8.13901e-05 7.16669 8.13901e-05C11.1247 8.13901e-05 14.3334 3.20871 14.3334 7.16675C14.3334 7.65677 14.2841 8.13595 14.19 8.59939C14.1184 8.95202 13.7745 9.17985 13.4219 9.10827C13.0693 9.03669 12.8414 8.6928 12.913 8.34017C12.9899 7.96157 13.0303 7.56922 13.0303 7.16675C13.0303 3.92835 10.4051 1.30311 7.16669 1.30311Z" fill="var(--fill-0, #635BFF)"/>
</g>
</svg>
