<svg preserveAspectRatio="none" width="100%" height="100%" overflow="visible" style="display: block;" viewBox="0 0 8.99972 13.0001" fill="none" xmlns="http://www.w3.org/2000/svg">
<g id="elements">
<path id="Vector 3733 (Stroke)" d="M5.39888 0.0840941C5.78018 0.254745 6.02682 0.650224 6.02682 1.11027V5.282C6.02682 5.33773 6.04608 5.37444 6.05948 5.39034L6.06006 5.39101H7.98536C8.47046 5.39101 8.79147 5.73263 8.92047 6.07108C9.05026 6.4116 9.03367 6.84815 8.77239 7.2003L4.77339 12.5901C4.47739 12.989 4.00079 13.095 3.60083 12.916C3.21953 12.7453 2.97288 12.3498 2.97288 11.8898V7.71807C2.97288 7.66233 2.95363 7.62563 2.94022 7.60973L2.93965 7.60905H1.01434C0.529243 7.60905 0.208232 7.26744 0.0792288 6.92898C-0.0505612 6.58847 -0.0339636 6.15191 0.227314 5.79977L4.22631 0.410008C4.52232 0.0110613 4.99891 -0.0949106 5.39888 0.0840941Z" fill="var(--fill-0, #01AF7B)"/>
</g>
</svg>
