<svg preserveAspectRatio="none" width="100%" height="100%" overflow="visible" style="display: block;" viewBox="0 0 5.76619 12.1378" fill="none" xmlns="http://www.w3.org/2000/svg">
<g id="Group 2492">
<path id="Subtract" d="M4.18262 0.0113135C4.95302 -0.0863146 5.65714 0.458699 5.75488 1.22909C5.85257 1.99957 5.30661 2.70366 4.53613 2.80135C4.33981 2.82625 4.17072 2.85596 4.02539 2.89022C3.42125 3.0327 3.25509 3.22512 3.13477 3.47616C2.93968 3.88342 2.8125 4.62615 2.8125 6.06893C2.81252 7.51147 2.9397 8.2535 3.13477 8.66073C3.25509 8.91186 3.42113 9.10415 4.02539 9.24667C4.17071 9.28092 4.33983 9.31064 4.53613 9.33553C5.30657 9.43322 5.8525 10.1374 5.75488 10.9078C5.6572 11.6782 4.95303 12.2241 4.18262 12.1265C3.90681 12.0916 3.63888 12.0448 3.38086 11.984C2.1503 11.6939 1.1679 11.0638 0.598633 9.87557C0.104148 8.84328 1.71907e-05 7.52833 0 6.06893C0 4.60938 0.104107 3.29369 0.598633 2.26131C1.16791 1.07317 2.15037 0.442998 3.38086 0.152915C3.63886 0.09211 3.90683 0.0462807 4.18262 0.0113135ZM4.37109 0.42147C3.82102 0.42147 3.37508 0.867505 3.375 1.41756C3.375 1.96769 3.82097 2.41366 4.37109 2.41366C4.92122 2.41366 5.36719 1.96769 5.36719 1.41756C5.36711 0.867504 4.92117 0.42147 4.37109 0.42147Z" fill="var(--fill-0, #00B4BB)"/>
</g>
</svg>
