<svg preserveAspectRatio="none" width="100%" height="100%" overflow="visible" style="display: block;" viewBox="0 0 9.48789 12.5146" fill="none" xmlns="http://www.w3.org/2000/svg">
<g id="Vector">
<path d="M6.76851 2.74994C6.76851 3.85447 5.87311 4.74988 4.76857 4.74988C3.66404 4.74988 2.76863 3.85447 2.76863 2.74994C2.76863 1.6454 3.66404 0.75 4.76857 0.75C5.87311 0.75 6.76851 1.6454 6.76851 2.74994Z" stroke="var(--stroke-0, #687782)" stroke-width="1.5" stroke-linecap="round" stroke-linejoin="round"/>
<path d="M0.81348 9.97345C1.87183 8.34411 3.55252 7.73349 4.76857 7.73475C5.98463 7.73602 7.61606 8.34411 8.67441 9.97345C8.74284 10.0788 8.76169 10.2085 8.69994 10.318C8.45243 10.7569 7.68394 11.6278 7.12888 11.6869C6.49112 11.7547 4.8228 11.7642 4.76986 11.7645C4.71688 11.7643 2.99706 11.7547 2.35901 11.6869C1.80395 11.6278 1.03546 10.7569 0.787949 10.318C0.726196 10.2085 0.745053 10.0788 0.81348 9.97345Z" stroke="var(--stroke-0, #687782)" stroke-width="1.5" stroke-linecap="round" stroke-linejoin="round"/>
</g>
</svg>
