<svg preserveAspectRatio="none" width="100%" height="100%" overflow="visible" style="display: block;" viewBox="0 0 24 24" fill="none" xmlns="http://www.w3.org/2000/svg">
<g id="Group">
<path id="Vector" fill-rule="evenodd" clip-rule="evenodd" d="M23.6 3.45C23.1 2.05001 21.948 0.899998 20.548 0.400011C19.348 0 18.5 0 15.84 0C14.782 0 8.16002 0 8.16002 0C5.50001 0 4.65 0 3.45 0.400011C2.03602 0.899998 0.9 2.03598 0.400012 3.45C0 4.65 0 5.50001 0 8.15999V15.84C0 18.5 0 19.35 0.400012 20.55C0.900952 21.964 2.03602 23.1 3.45 23.6C4.65 24 5.50001 24 8.16002 24H15.84C18.5 24 19.35 24 20.55 23.6C21.964 23.1 23.1 21.964 23.6 20.55C24 19.35 24 18.5 24 15.84V8.15999C24 5.50001 24 4.65 23.6 3.45Z" fill="var(--fill-0, #FCE2E2)"/>
</g>
</svg>
