<svg preserveAspectRatio="none" width="100%" height="100%" overflow="visible" style="display: block;" viewBox="0 0 13.666 13.6659" fill="none" xmlns="http://www.w3.org/2000/svg">
<g id="elements">
<path id="Subtract" d="M11.7866 0.015507C12.0578 0.00217202 12.356 -0.0118623 12.5806 0.0164836C12.846 0.0500514 13.0923 0.143541 13.3071 0.35828C13.5221 0.573256 13.6164 0.820175 13.6499 1.08582C13.6782 1.31031 13.6632 1.60771 13.6499 1.87879C13.5703 3.50601 13.0796 5.09941 11.8511 6.32801L10.8609 7.31824C10.4289 7.75019 10.2382 7.94915 10.1441 8.13269C10.0789 8.26004 10.0473 8.40799 10.1196 8.78894C10.1991 9.10647 10.2986 9.50457 10.2993 9.87586C10.3001 10.2848 10.1865 10.7113 9.8257 11.0721C9.48136 11.4165 9.07622 11.6659 8.60402 11.6659C8.13179 11.6659 7.72669 11.4165 7.38234 11.0721L2.59328 6.28309C2.24905 5.93878 1.99953 5.53353 1.99953 5.06141C1.99969 4.5895 2.24917 4.18489 2.59328 3.8407C2.95418 3.4798 3.38052 3.36631 3.78957 3.36707C4.16094 3.36778 4.55887 3.46727 4.87648 3.54676C5.25743 3.61916 5.40541 3.5875 5.53273 3.52234C5.71635 3.42832 5.91511 3.23762 6.34719 2.80555L7.33742 1.81531C8.56595 0.586782 10.1595 0.0951636 11.7866 0.015507ZM10.1636 2.83289C9.79572 2.83314 9.49774 3.13101 9.49758 3.49891C9.49758 3.86694 9.79562 4.16564 10.1636 4.1659H10.1704C10.5384 4.16569 10.8364 3.86697 10.8364 3.49891C10.8363 3.13098 10.5383 2.83309 10.1704 2.83289H10.1636Z" fill="var(--fill-0, #635BFF)"/>
<path id="Vector (Stroke)" fill-rule="evenodd" clip-rule="evenodd" d="M2.34783 7.51797C2.59517 7.7653 2.59517 8.16631 2.34783 8.41364L1.08117 9.6803C0.833836 9.92764 0.432831 9.92764 0.185499 9.6803C-0.061833 9.43297 -0.061833 9.03197 0.185499 8.78464L1.45217 7.51797C1.6995 7.27064 2.1005 7.27064 2.34783 7.51797ZM3.35217 9.41797C3.5995 9.17064 4.0005 9.17064 4.24783 9.41797C4.49517 9.6653 4.49517 10.0663 4.24783 10.3136L1.08117 13.4803C0.833836 13.7276 0.432831 13.7276 0.185499 13.4803C-0.061833 13.233 -0.061833 12.832 0.185499 12.5846L3.35217 9.41797ZM6.14783 11.318C6.39517 11.5653 6.39517 11.9663 6.14783 12.2136L4.88117 13.4803C4.63384 13.7276 4.23283 13.7276 3.9855 13.4803C3.73817 13.233 3.73817 12.832 3.9855 12.5846L5.25217 11.318C5.4995 11.0706 5.9005 11.0706 6.14783 11.318Z" fill="var(--fill-0, #635BFF)"/>
</g>
</svg>
