<svg preserveAspectRatio="none" width="100%" height="100%" overflow="visible" style="display: block;" viewBox="0 0 5.76577 12.1376" fill="none" xmlns="http://www.w3.org/2000/svg">
<g id="Group 2489">
<path id="Subtract" fill-rule="evenodd" clip-rule="evenodd" d="M4.53625 2.80148C5.30674 2.70379 5.85214 2 5.75445 1.22952C5.65676 0.459037 4.95297 -0.086369 4.18249 0.0113204C3.90655 0.0463066 3.63859 0.0924668 3.38045 0.153321C2.14983 0.443433 1.16744 1.07342 0.598191 2.2618C0.103665 3.29418 0 4.60927 0 6.06882C0 7.52837 0.103665 8.84346 0.598191 9.87584C1.16744 11.0642 2.14983 11.6942 3.38045 11.9843C3.63859 12.0452 3.90655 12.0913 4.18249 12.1263C4.95297 12.224 5.65676 11.6786 5.75445 10.9081C5.85214 10.1376 5.30674 9.43386 4.53626 9.33616C4.33988 9.31127 4.17115 9.28113 4.02579 9.24686C3.4211 9.10431 3.25505 8.91208 3.1347 8.66082C2.93961 8.25356 2.8125 7.5116 2.8125 6.06882C2.8125 4.62605 2.93961 3.88409 3.1347 3.47683C3.25505 3.22557 3.4211 3.03333 4.02579 2.89078C4.17115 2.85651 4.33988 2.82638 4.53625 2.80148ZM3.375 1.41842C3.375 1.96855 3.82097 2.41451 4.37109 2.41451C4.92122 2.41451 5.36719 1.96855 5.36719 1.41842C5.36719 0.868292 4.92122 0.422326 4.37109 0.422326C3.82097 0.422326 3.375 0.868292 3.375 1.41842Z" fill="var(--fill-0, #00B4BB)"/>
</g>
</svg>
