<svg preserveAspectRatio="none" width="100%" height="100%" overflow="visible" style="display: block;" viewBox="0 0 13.3597 11.947" fill="none" xmlns="http://www.w3.org/2000/svg">
<g id="Group">
<path id="Vector" d="M11.9534 9.13406H4.24821L2.92888 11.4192C2.80634 11.6315 2.64582 11.8083 2.46094 11.9466L11.9534 11.9466C12.7301 11.9466 13.3597 11.317 13.3597 10.5403V10.5403C13.3597 9.76366 12.7301 9.13406 11.9534 9.13406ZM12.4514 11.4028C11.9751 11.6778 11.366 11.5146 11.0909 11.0383C10.8159 10.5619 10.9791 9.95283 11.4555 9.67781C11.9318 9.40279 12.5409 9.566 12.8159 10.0423C13.091 10.5187 12.9277 11.1278 12.4514 11.4028Z" fill="var(--fill-0, #635BFF)"/>
<path id="Vector_2" d="M5.15763 2.28543C5.03508 2.07319 4.96216 1.84573 4.9349 1.61651L0.188636 9.83727C-0.199685 10.5099 0.0307536 11.3699 0.703357 11.7582V11.7582C1.37595 12.1466 2.23601 11.9161 2.62433 11.2435L6.47695 4.57058L5.15763 2.28543ZM1.40648 11.5363C0.856444 11.5363 0.41056 11.0904 0.41056 10.5404C0.41056 9.99036 0.856444 9.54447 1.40648 9.54447C1.95652 9.54447 2.40242 9.99036 2.40242 10.5404C2.40242 11.0904 1.95652 11.5363 1.40648 11.5363Z" fill="var(--fill-0, #635BFF)"/>
<path id="Vector_3" d="M7.89778 0.70336C7.50946 0.0307678 6.64941 -0.199694 5.97679 0.188639C5.3042 0.57696 5.07374 1.43702 5.46208 2.10961L9.31469 8.78255H11.9534C12.1984 8.78255 12.4319 8.83312 12.644 8.92412L7.89778 0.70336ZM7.1779 2.26899C6.70155 2.544 6.09245 2.3808 5.81742 1.90445C5.5424 1.42811 5.70562 0.819007 6.18196 0.54399C6.65831 0.268971 7.26741 0.432179 7.54241 0.908524C7.81744 1.38487 7.65422 1.99397 7.1779 2.26899Z" fill="var(--fill-0, #635BFF)"/>
</g>
</svg>
