<svg preserveAspectRatio="none" width="100%" height="100%" overflow="visible" style="display: block;" viewBox="0 0 21.5 17.5" fill="none" xmlns="http://www.w3.org/2000/svg">
<g id="elements">
<path id="Rectangle 368" d="M0.750001 7.75C0.750001 4.45017 0.750001 2.80025 1.77513 1.77513C2.80025 0.750001 4.45017 0.750001 7.75 0.750001H8.75C12.0498 0.750001 13.6997 0.750001 14.7249 1.77513C15.75 2.80025 15.75 4.45017 15.75 7.75V9.75C15.75 13.0498 15.75 14.6997 14.7249 15.7249C13.6997 16.75 12.0498 16.75 8.75 16.75H7.75C4.45017 16.75 2.80025 16.75 1.77513 15.7249C0.750001 14.6997 0.750001 13.0498 0.750001 9.75V7.75Z" stroke="var(--stroke-0, #687782)" stroke-width="1.5"/>
<path id="Rectangle 369" d="M15.75 5.65585L15.8759 5.55196C17.9917 3.80623 19.0496 2.93336 19.8998 3.35482C20.75 3.77628 20.75 5.17355 20.75 7.96808V9.53192C20.75 12.3265 20.75 13.7237 19.8998 14.1452C19.0496 14.5666 17.9917 13.6938 15.8759 11.948L15.75 11.8441" stroke="var(--stroke-0, #687782)" stroke-width="1.5" stroke-linecap="round"/>
<circle id="Ellipse 383" cx="10.25" cy="6.25" r="1.5" stroke="var(--stroke-0, #687782)" stroke-width="1.5"/>
</g>
</svg>
