<svg preserveAspectRatio="none" width="100%" height="100%" overflow="visible" style="display: block;" viewBox="0 0 24 21" fill="none" xmlns="http://www.w3.org/2000/svg">
<g id="Group">
<path id="Fill 1" fill-rule="evenodd" clip-rule="evenodd" d="M11.9999 21C7.55985 21 3.45692 18.7686 1.02487 15.0307C0.506706 14.2345 0.730991 13.168 1.52564 12.649C2.32058 12.1301 3.38484 12.3546 3.903 13.1509C5.6986 15.9105 8.72543 17.5579 11.9999 17.5579C15.2743 17.5579 18.3013 15.9105 20.097 13.1509C20.6153 12.3546 21.6799 12.1299 22.4744 12.649C23.2692 13.1681 23.4933 14.2345 22.9751 15.0307C20.543 18.7686 16.4399 21 11.9999 21" fill="var(--fill-0, white)"/>
<path id="Fill 3" fill-rule="evenodd" clip-rule="evenodd" d="M6.14021 11.9514C7.7798 11.9514 9.28605 11.3683 10.1696 10.3911C10.5123 10.0148 10.6651 9.64204 10.6651 9.18343C10.6651 8.34471 10.0703 7.75851 9.21792 7.75851C8.69244 7.75851 8.38628 7.92813 8.13056 8.11298C7.76211 8.38982 7.1454 8.85283 6.16463 8.85283C4.35075 8.85283 3.53929 7.40727 3.53929 5.97503C3.53929 4.54294 4.35075 3.09796 6.16463 3.09796C7.14847 3.09796 7.7646 3.56155 8.1348 3.84088C8.38686 4.02266 8.69303 4.19154 9.2185 4.19154C10.0703 4.19154 10.6651 3.60608 10.6651 2.76736C10.6651 2.30128 10.5171 1.93963 10.1702 1.55967C9.28547 0.583119 7.77922 0 6.14021 0C2.52489 0 0 2.45683 0 5.97503C0 9.49381 2.52489 11.9514 6.14021 11.9514" fill="var(--fill-0, white)"/>
<path id="Fill 5" fill-rule="evenodd" clip-rule="evenodd" d="M15.5596 5.97511C15.5596 4.56982 16.4109 3.1474 18.0376 3.1474C19.6626 3.1474 20.5126 4.56982 20.5126 5.97511C20.5126 7.38039 19.6626 8.8034 18.0376 8.8034C16.4109 8.8034 15.5596 7.38039 15.5596 5.97511M18.0376 11.9514C21.4368 11.9514 24 9.38224 24 5.97508C24 2.5685 21.4368 4.85627e-05 18.0376 4.85627e-05C14.6366 4.85627e-05 12.0722 2.5685 12.0722 5.97508C12.0722 9.38224 14.6366 11.9514 18.0376 11.9514" fill="var(--fill-0, white)"/>
</g>
</svg>
