<svg preserveAspectRatio="none" width="100%" height="100%" overflow="visible" style="display: block;" viewBox="0 0 20 19" fill="none" xmlns="http://www.w3.org/2000/svg">
<path id="Vector" d="M19.5 10.75C19.5 9.33 18.65 8.11 17.43 7.56C17.47 7.38 17.5 7.19 17.5 7C17.5 5.62 16.38 4.5 15 4.5C14.63 4.5 14.29 4.58 13.98 4.72C13.98 4.65 14 4.58 14 4.5C14 2.29 12.21 0.5 10 0.5C7.79 0.5 6 2.29 6 4.5C6 4.58 6.02 4.65 6.02 4.72C5.71 4.58 5.37 4.5 5 4.5C3.62 4.5 2.5 5.62 2.5 7C2.5 7.19 2.53 7.38 2.57 7.56C1.35 8.11 0.5 9.33 0.5 10.75C0.5 11.94 1.1 13 2.01 13.63C2.08 16.33 4.28 18.5 7 18.5C8.13 18.5 9.16 18.11 10 17.48C10.84 18.11 11.87 18.5 13 18.5C15.72 18.5 17.92 16.33 17.99 13.63C18.9 13 19.5 11.94 19.5 10.75Z" stroke="var(--stroke-0, #1A2228)" stroke-linecap="round" stroke-linejoin="round"/>
</svg>
