<svg preserveAspectRatio="none" width="100%" height="100%" overflow="visible" style="display: block;" viewBox="0 0 13.1667 7.16667" fill="none" xmlns="http://www.w3.org/2000/svg">
<g id="elements">
<path id="Vector 4635 (Stroke)" fill-rule="evenodd" clip-rule="evenodd" d="M9.83334 6.5C9.83334 6.13181 10.1318 5.83334 10.5 5.83334L12.5 5.83334C12.8682 5.83334 13.1667 6.13181 13.1667 6.5C13.1667 6.86819 12.8682 7.16667 12.5 7.16667L10.5 7.16667C10.1318 7.16667 9.83334 6.86819 9.83334 6.5Z" fill="var(--fill-0, #D97706)"/>
<path id="Vector 4638 (Stroke)" d="M1.80351 2.66667L1.83334 2.66667L1.86317 2.66667C2.15172 2.66664 2.41627 2.6666 2.63148 2.69554C2.86847 2.7274 3.11895 2.80236 3.32496 3.00838C3.53098 3.2144 3.60595 3.46488 3.63781 3.70187C3.66674 3.91707 3.66671 4.18162 3.66668 4.47016V4.47018L3.66667 4.5V5.16667L3.66668 5.1965V5.19651C3.66671 5.48505 3.66674 5.7496 3.63781 5.96481C3.60595 6.2018 3.53098 6.45228 3.32496 6.6583C3.11895 6.86431 2.86847 6.93928 2.63148 6.97114C2.41627 7.00007 2.15171 7.00004 1.86317 7.00001L1.83334 7.00001L1.80351 7.00001C1.51497 7.00004 1.25041 7.00007 1.0352 6.97114C0.798215 6.93928 0.547731 6.86431 0.341716 6.6583C0.1357 6.45228 0.0607354 6.2018 0.0288734 5.96481C-6.05608e-05 5.7496 -2.93684e-05 5.48505 4.64602e-06 5.1965L6.99047e-06 5.16667V4.5L4.64602e-06 4.47017C-2.93684e-05 4.18163 -6.05608e-05 3.91707 0.0288734 3.70187C0.0607354 3.46488 0.1357 3.2144 0.341716 3.00838C0.547731 2.80236 0.798215 2.7274 1.0352 2.69554C1.25041 2.6666 1.51496 2.66664 1.80351 2.66667Z" fill="var(--fill-0, #D97706)"/>
<path id="Vector 4639 (Stroke)" d="M6.47017 2.32144e-06L6.50001 4.66589e-06L6.52984 2.32144e-06C6.81838 -3.16929e-05 7.08294 -6.28854e-05 7.29815 0.028871C7.53513 0.0607331 7.78562 0.135698 7.99163 0.341713C8.19765 0.547729 8.27261 0.798213 8.30447 1.0352C8.33341 1.2504 8.33338 1.51496 8.33334 1.8035V1.80351L8.33334 1.83334V5.16667L8.33334 5.1965V5.19651C8.33338 5.48505 8.33341 5.7496 8.30447 5.96481C8.27261 6.2018 8.19765 6.45228 7.99163 6.6583C7.78562 6.86431 7.53513 6.93928 7.29815 6.97114C7.08294 7.00007 6.81838 7.00004 6.52984 7.00001L6.50001 7L6.47018 7.00001C6.18163 7.00004 5.91708 7.00007 5.70187 6.97114C5.46488 6.93928 5.2144 6.86431 5.00838 6.6583C4.80237 6.45228 4.7274 6.2018 4.69554 5.96481C4.66661 5.7496 4.66664 5.48505 4.66667 5.1965L4.66667 5.16667V1.83334L4.66667 1.80351C4.66664 1.51496 4.66661 1.25041 4.69554 1.0352C4.7274 0.798213 4.80237 0.547729 5.00838 0.341713C5.2144 0.135698 5.46488 0.0607331 5.70187 0.028871C5.91708 -6.28854e-05 6.18163 -3.16929e-05 6.47017 2.32144e-06Z" fill="var(--fill-0, #D97706)"/>
</g>
</svg>
