<svg preserveAspectRatio="none" width="100%" height="100%" overflow="visible" style="display: block;" viewBox="0 0 24 24" fill="none" xmlns="http://www.w3.org/2000/svg">
<g id="icon">
<path id="background" fill-rule="evenodd" clip-rule="evenodd" d="M23.6 3.45C23.1 2.05001 21.948 0.899998 20.548 0.400011C19.348 0 18.5 0 15.84 0C14.782 0 8.16002 0 8.16002 0C5.50001 0 4.65 0 3.45 0.400011C2.03602 0.899998 0.9 2.03598 0.400012 3.45C0 4.65 0 5.50001 0 8.15999V15.84C0 18.5 0 19.35 0.400012 20.55C0.900952 21.964 2.03602 23.1 3.45 23.6C4.65 24 5.50001 24 8.16002 24H15.84C18.5 24 19.35 24 20.55 23.6C21.964 23.1 23.1 21.964 23.6 20.55C24 19.35 24 18.5 24 15.84V8.15999C24 5.50001 24 4.65 23.6 3.45Z" fill="var(--fill-0, #D6F5FF)"/>
<path id="shape" fill-rule="evenodd" clip-rule="evenodd" d="M13.4053 5.90061C13.4053 5.12465 12.7762 4.49561 12.0003 4.49561C11.2243 4.49561 10.5953 5.12465 10.5953 5.90061V10.3668L6.34739 8.98655C5.60941 8.74677 4.81677 9.15064 4.57699 9.88862C4.3372 10.6266 4.74107 11.4192 5.47905 11.659L9.72664 13.0391L7.10151 16.6523C6.64541 17.2801 6.78457 18.1587 7.41234 18.6148C8.0401 19.0709 8.91875 18.9318 9.37485 18.304L12.0001 14.6906L14.6254 18.3041C15.0815 18.9318 15.9602 19.071 16.5879 18.6149C17.2157 18.1588 17.3549 17.2802 16.8988 16.6524L14.2737 13.0392L18.5212 11.6591C19.2592 11.4193 19.6631 10.6267 19.4233 9.88872C19.1835 9.15074 18.3909 8.74687 17.6529 8.98666L13.4053 10.3668V5.90061ZM12.9964 5.90039C12.9964 6.45052 12.5504 6.89648 12.0003 6.89648C11.4501 6.89648 11.0042 6.45052 11.0042 5.90039C11.0042 5.35026 11.4501 4.9043 12.0003 4.9043C12.5504 4.9043 12.9964 5.35026 12.9964 5.90039ZM18.087 11.3188C18.6372 11.3188 19.0831 10.8729 19.0831 10.3228C19.0831 9.77263 18.6372 9.32666 18.087 9.32666C17.5369 9.32666 17.0909 9.77263 17.0909 10.3228C17.0909 10.8729 17.5369 11.3188 18.087 11.3188ZM16.7582 17.4783C16.7582 18.0284 16.3122 18.4744 15.7621 18.4744C15.212 18.4744 14.766 18.0284 14.766 17.4783C14.766 16.9281 15.212 16.4822 15.7621 16.4822C16.3122 16.4822 16.7582 16.9281 16.7582 17.4783ZM8.23816 18.4741C8.78829 18.4741 9.23425 18.0282 9.23425 17.478C9.23425 16.9279 8.78829 16.4819 8.23816 16.4819C7.68803 16.4819 7.24207 16.9279 7.24207 17.478C7.24207 18.0282 7.68803 18.4741 8.23816 18.4741ZM6.9093 10.3154C6.9093 10.8656 6.46334 11.3115 5.91321 11.3115C5.36308 11.3115 4.91711 10.8656 4.91711 10.3154C4.91711 9.7653 5.36308 9.31934 5.91321 9.31934C6.46334 9.31934 6.9093 9.7653 6.9093 10.3154Z" fill="var(--fill-0, #0094C7)"/>
</g>
</svg>
