<svg preserveAspectRatio="none" width="100%" height="100%" overflow="visible" style="display: block;" viewBox="0 0 20.5 20.5" fill="none" xmlns="http://www.w3.org/2000/svg">
<g id="elements">
<path id="Vector" d="M0.75 10.25C0.75 5.77166 0.75 3.53249 2.14124 2.14124C3.53249 0.75 5.77166 0.75 10.25 0.75C14.7283 0.75 16.9675 0.75 18.3588 2.14124C19.75 3.53249 19.75 5.77166 19.75 10.25C19.75 14.7283 19.75 16.9675 18.3588 18.3588C16.9675 19.75 14.7283 19.75 10.25 19.75C5.77166 19.75 3.53249 19.75 2.14124 18.3588C0.75 16.9675 0.75 14.7283 0.75 10.25Z" stroke="var(--stroke-0, #687782)" stroke-width="1.5" stroke-linejoin="round"/>
<path id="Ellipse 1200" d="M6.75 8.25C5.92157 8.25 5.25 7.57843 5.25 6.75C5.25 5.92157 5.92157 5.25 6.75 5.25C7.57843 5.25 8.25 5.92157 8.25 6.75C8.25 7.57843 7.57843 8.25 6.75 8.25Z" stroke="var(--stroke-0, #687782)" stroke-width="1.5"/>
<path id="Ellipse 1201" d="M13.75 15.25C14.5784 15.25 15.25 14.5784 15.25 13.75C15.25 12.9216 14.5784 12.25 13.75 12.25C12.9216 12.25 12.25 12.9216 12.25 13.75C12.25 14.5784 12.9216 15.25 13.75 15.25Z" stroke="var(--stroke-0, #687782)" stroke-width="1.5"/>
<path id="Vector 6833" d="M8.25 6.75L15.25 6.75" stroke="var(--stroke-0, #687782)" stroke-width="1.5" stroke-linecap="round"/>
<path id="Vector 6834" d="M12.25 13.75L5.25 13.75" stroke="var(--stroke-0, #687782)" stroke-width="1.5" stroke-linecap="round"/>
</g>
</svg>
