<svg preserveAspectRatio="none" width="100%" height="100%" overflow="visible" style="display: block;" viewBox="0 0 14.3329 13.667" fill="none" xmlns="http://www.w3.org/2000/svg">
<g id="elements">
<path id="Subtract" d="M6.0752 0.176758C6.78468 -0.0586258 7.54933 -0.0587344 8.25879 0.176758C8.96549 0.41134 9.52069 0.968308 10.0781 1.75C10.6336 2.52907 11.2479 3.61559 12.0391 5.01563L12.0693 5.07031C12.8608 6.47082 13.4748 7.55756 13.8574 8.43848C14.2417 9.3234 14.4329 10.0872 14.2803 10.8213C14.1265 11.5605 13.7476 12.2331 13.1953 12.7412C12.6443 13.2481 11.8939 13.4617 10.9492 13.5645C10.0098 13.6666 8.78084 13.667 7.19922 13.667H7.13379C5.55259 13.667 4.32404 13.6665 3.38477 13.5645C2.44007 13.4617 1.68971 13.248 1.13867 12.7412C0.586275 12.2331 0.206552 11.5606 0.0527344 10.8213C-0.0998401 10.0873 0.0913693 9.3233 0.475586 8.43848C0.858155 7.55757 1.4722 6.4708 2.26367 5.07031L2.29492 5.01563C3.08622 3.61544 3.7003 2.52909 4.25586 1.75C4.8133 0.968308 5.36849 0.41134 6.0752 0.176758ZM7.16406 9.5C6.79752 9.5 6.50001 9.79881 6.5 10.167C6.5 10.5352 6.79752 10.834 7.16406 10.834H7.16992C7.53636 10.8339 7.83301 10.5351 7.83301 10.167C7.833 9.79888 7.53636 9.50012 7.16992 9.5H7.16406ZM7.16699 4.16699C6.7988 4.16699 6.5 4.46579 6.5 4.83398V7.5C6.5 7.86819 6.7988 8.16699 7.16699 8.16699C7.53506 8.16684 7.83301 7.8681 7.83301 7.5V4.83398C7.83301 4.46589 7.53506 4.16714 7.16699 4.16699Z" fill="var(--fill-0, #E10001)"/>
</g>
</svg>
