<svg preserveAspectRatio="none" width="100%" height="100%" overflow="visible" style="display: block;" viewBox="0 0 21.5 20.5" fill="none" xmlns="http://www.w3.org/2000/svg">
<g id="elements">
<path id="Polygon 13" d="M4.07171 7.93293C6.48539 3.66199 7.69223 1.52651 9.34826 0.97681C10.2593 0.674397 11.2407 0.674397 12.1517 0.97681C13.8078 1.52651 15.0146 3.66199 17.4283 7.93293C19.842 12.2039 21.0488 14.3393 20.6868 16.0793C20.4876 17.0366 19.9969 17.9049 19.285 18.5597C17.991 19.75 15.5774 19.75 10.75 19.75C5.92265 19.75 3.50898 19.75 2.21497 18.5597C1.50308 17.9049 1.01239 17.0366 0.813228 16.0793C0.451199 14.3393 1.65804 12.2039 4.07171 7.93293Z" stroke="var(--stroke-0, #455968)" stroke-width="1.5"/>
<path id="Vector" d="M10.742 14.25H10.751" stroke="var(--stroke-0, #455968)" stroke-width="2" stroke-linecap="round" stroke-linejoin="round"/>
<path id="Vector 2610" d="M10.75 11.25L10.75 7.25" stroke="var(--stroke-0, #455968)" stroke-width="1.5" stroke-linecap="round" stroke-linejoin="round"/>
</g>
</svg>
