<svg preserveAspectRatio="none" width="100%" height="100%" overflow="visible" style="display: block;" viewBox="0 0 24 24" fill="none" xmlns="http://www.w3.org/2000/svg">
<g id="Group">
<path id="Vector" fill-rule="evenodd" clip-rule="evenodd" d="M8.16 0C5.5 0 4.65 0 3.45 0.4C2.036 0.9 0.9 2.036 0.4 3.45C0 4.65 0 5.5 0 8.16V15.84C0 18.5 0 19.35 0.4 20.55C0.900928 21.964 2.036 23.1 3.45 23.6C4.65 24 5.5 24 8.16 24H15.84C18.5 24 19.35 24 20.55 23.6C21.964 23.1 23.1 21.964 23.6 20.55C24 19.35 24 18.5 24 15.84V8.16C24 5.5 24 4.65 23.6 3.45C23.1 2.05 21.948 0.9 20.548 0.4C19.348 0 18.5 0 15.84 0C17.24 0 8.16 0 8.16 0Z" fill="var(--fill-0, #D9F6ED)"/>
</g>
</svg>
