<svg preserveAspectRatio="none" width="100%" height="100%" overflow="visible" style="display: block;" viewBox="0 0 14.334 14.334" fill="none" xmlns="http://www.w3.org/2000/svg">
<g id="elements">
<path id="Subtract" d="M7.16699 0C11.125 3.38219e-07 14.334 3.20895 14.334 7.16699C14.334 11.125 11.125 14.334 7.16699 14.334C3.20895 14.334 0 11.125 0 7.16699C5.15382e-07 3.20895 3.20895 0 7.16699 0ZM9.63867 4.69531C9.37833 4.43497 8.95567 4.43498 8.69531 4.69531L7.16699 6.22461L5.63867 4.69629C5.37831 4.43595 4.95565 4.43593 4.69531 4.69629C4.43536 4.95663 4.43522 5.37843 4.69531 5.63867L6.22363 7.16699L4.69531 8.69531C4.43522 8.95555 4.43536 9.37736 4.69531 9.6377C4.95565 9.89805 5.37831 9.89804 5.63867 9.6377L7.16699 8.10938L8.69531 9.63867C8.95567 9.89901 9.37833 9.89901 9.63867 9.63867C9.89901 9.37832 9.89901 8.95565 9.63867 8.69531L8.10938 7.16699L9.63867 5.63867C9.89901 5.37833 9.89901 4.95567 9.63867 4.69531Z" fill="var(--fill-0, #758795)"/>
</g>
</svg>
