<svg preserveAspectRatio="none" width="100%" height="100%" overflow="visible" style="display: block;" viewBox="0 0 13 9.66672" fill="none" xmlns="http://www.w3.org/2000/svg">
<g id="elements">
<path id="Vector 4638 (Stroke)" fill-rule="evenodd" clip-rule="evenodd" d="M1.80351 5.33334C1.81342 5.33334 1.82337 5.33334 1.83334 5.33334C1.84331 5.33334 1.85326 5.33334 1.86317 5.33334C2.15172 5.3333 2.41627 5.33327 2.63148 5.36221C2.86847 5.39407 3.11895 5.46903 3.32497 5.67505C3.53098 5.88106 3.60595 6.13155 3.63781 6.36854C3.66674 6.58374 3.66671 6.8483 3.66668 7.13684C3.66668 7.14676 3.66667 7.1567 3.66667 7.16667V7.83334C3.66667 7.84331 3.66668 7.85325 3.66668 7.86317C3.66671 8.15171 3.66674 8.41627 3.63781 8.63148C3.60595 8.86847 3.53098 9.11895 3.32497 9.32496C3.11895 9.53098 2.86847 9.60595 2.63148 9.63781C2.41627 9.66674 2.15171 9.66671 1.86317 9.66668C1.85325 9.66667 1.84331 9.66667 1.83334 9.66667C1.82337 9.66667 1.81343 9.66667 1.80351 9.66668C1.51497 9.66671 1.25041 9.66674 1.0352 9.63781C0.798215 9.60595 0.547731 9.53098 0.341716 9.32496C0.1357 9.11895 0.0607354 8.86847 0.0288734 8.63148C-6.05608e-05 8.41627 -2.93684e-05 8.15172 4.64602e-06 7.86317C5.79838e-06 7.85326 6.99047e-06 7.84331 6.99047e-06 7.83334V7.16667C6.99047e-06 7.1567 5.79838e-06 7.14676 4.64602e-06 7.13684C-2.93684e-05 6.8483 -6.05608e-05 6.58374 0.0288734 6.36854C0.0607354 6.13155 0.1357 5.88106 0.341716 5.67505C0.547731 5.46903 0.798215 5.39407 1.0352 5.36221C1.25041 5.33327 1.51496 5.3333 1.80351 5.33334Z" fill="var(--fill-0, #01AF7B)"/>
<path id="Vector 4639 (Stroke)" fill-rule="evenodd" clip-rule="evenodd" d="M6.47017 2.66667C6.48009 2.66667 6.49004 2.66667 6.50001 2.66667C6.50998 2.66667 6.51992 2.66667 6.52984 2.66667C6.81838 2.66664 7.08294 2.66661 7.29815 2.69554C7.53513 2.7274 7.78562 2.80237 7.99163 3.00838C8.19765 3.2144 8.27261 3.46488 8.30447 3.70187C8.33341 3.91708 8.33338 4.18163 8.33334 4.47018C8.33334 4.48009 8.33334 4.49004 8.33334 4.50001V7.83334C8.33334 7.84331 8.33334 7.85325 8.33334 7.86317C8.33338 8.15172 8.33341 8.41627 8.30447 8.63148C8.27261 8.86847 8.19765 9.11895 7.99163 9.32496C7.78562 9.53098 7.53513 9.60595 7.29815 9.63781C7.08294 9.66674 6.81838 9.66671 6.52984 9.66668C6.51992 9.66668 6.50998 9.66667 6.50001 9.66667C6.49004 9.66667 6.48009 9.66668 6.47018 9.66668C6.18163 9.66671 5.91708 9.66674 5.70187 9.63781C5.46488 9.60595 5.2144 9.53098 5.00838 9.32496C4.80237 9.11895 4.7274 8.86847 4.69554 8.63148C4.66661 8.41627 4.66664 8.15172 4.66667 7.86317C4.66667 7.85326 4.66667 7.84331 4.66667 7.83334V4.50001C4.66667 4.49004 4.66667 4.48009 4.66667 4.47017C4.66664 4.18163 4.66661 3.91708 4.69554 3.70187C4.7274 3.46488 4.80237 3.2144 5.00838 3.00838C5.2144 2.80237 5.46488 2.7274 5.70187 2.69554C5.91708 2.66661 6.18163 2.66664 6.47017 2.66667Z" fill="var(--fill-0, #01AF7B)"/>
<path id="Vector 4640 (Stroke)" d="M11.1368 4.70562e-06L11.1667 7.05007e-06L11.1965 4.70562e-06C11.4851 -2.93088e-05 11.7496 -6.05012e-05 11.9648 0.0288734C12.2018 0.0607355 12.4523 0.1357 12.6583 0.341716C12.8643 0.547731 12.9393 0.798215 12.9711 1.0352C13.0001 1.25041 13 1.51496 13 1.8035V1.80351L13 1.83334L13 7.86317V7.86318C13 8.15172 13.0001 8.41627 12.9711 8.63148C12.9393 8.86847 12.8643 9.11895 12.6583 9.32497C12.4523 9.53098 12.2018 9.60595 11.9648 9.63781C11.7496 9.66674 11.485 9.66671 11.1965 9.66668H11.1368C10.8483 9.66671 10.5837 9.66674 10.3685 9.63781C10.1315 9.60595 9.88106 9.53098 9.67505 9.32497C9.46903 9.11895 9.39407 8.86847 9.36221 8.63148C9.33327 8.41627 9.3333 8.15172 9.33334 7.86317L9.33334 1.83334L9.33334 1.80351C9.3333 1.51496 9.33327 1.25041 9.36221 1.0352C9.39407 0.798215 9.46903 0.547731 9.67505 0.341716C9.88106 0.1357 10.1315 0.0607355 10.3685 0.0288734C10.5837 -6.05012e-05 10.8483 -2.93088e-05 11.1368 4.70562e-06Z" fill="var(--fill-0, #01AF7B)"/>
</g>
</svg>
