<svg preserveAspectRatio="none" width="100%" height="100%" overflow="visible" style="display: block;" viewBox="0 0 11.6666 11.6668" fill="none" xmlns="http://www.w3.org/2000/svg">
<g id="elements">
<path id="Rectangle 1878 (Stroke)" d="M9.13369 1.12918e-06L9.1666 3.53848e-06L9.19952 1.12918e-06H9.19955C9.64278 -2.25297e-05 10.0247 -4.29149e-05 10.3305 0.0410738C10.6583 0.0851397 10.9724 0.184512 11.2273 0.439343C11.4821 0.694175 11.5815 1.00835 11.6255 1.33611C11.6667 1.64194 11.6666 2.02385 11.6666 2.46709V9.19958C11.6666 9.64283 11.6667 10.0247 11.6255 10.3306C11.5815 10.6583 11.4821 10.9725 11.2273 11.2273C10.9724 11.4822 10.6583 11.5815 10.3305 11.6256C10.0247 11.6667 9.64277 11.6667 9.19953 11.6667H9.19952H9.13369H9.13367C8.69044 11.6667 8.30853 11.6667 8.00271 11.6256C7.67495 11.5815 7.36077 11.4822 7.10594 11.2273C6.85111 10.9725 6.75174 10.6583 6.70767 10.3306C6.66656 10.0247 6.66658 9.64285 6.6666 9.19962V9.19959V2.46709V2.46705C6.66658 2.02382 6.66656 1.64193 6.70767 1.33611C6.75174 1.00835 6.85111 0.694174 7.10594 0.439343C7.36077 0.184512 7.67495 0.0851398 8.00271 0.0410738C8.30853 -4.29131e-05 8.69042 -2.25297e-05 9.13365 1.12918e-06H9.13369Z" fill="var(--fill-0, #D97706)"/>
<path id="Rectangle 1878 (Stroke)_2" d="M2.46709 1.12918e-06L2.5 3.53848e-06L2.53292 1.12918e-06H2.53295C2.97618 -2.25297e-05 3.35808 -4.29149e-05 3.6639 0.0410738C3.99166 0.0851397 4.30583 0.184512 4.56066 0.439343C4.81549 0.694175 4.91487 1.00835 4.95893 1.33611C5.00005 1.64194 5.00003 2.02385 5 2.46709V9.19958C5.00003 9.64283 5.00005 10.0247 4.95893 10.3306C4.91487 10.6583 4.81549 10.9725 4.56066 11.2273C4.30583 11.4822 3.99166 11.5815 3.6639 11.6256C3.35807 11.6667 2.97617 11.6667 2.53293 11.6667H2.53292H2.46709H2.46707C2.02384 11.6667 1.64193 11.6667 1.33611 11.6256C1.00835 11.5815 0.694175 11.4822 0.439343 11.2273C0.184512 10.9725 0.0851397 10.6583 0.0410738 10.3306C-4.29131e-05 10.0247 -2.25297e-05 9.64285 1.12918e-06 9.19962V9.19959V2.46709V2.46705C-2.25297e-05 2.02382 -4.29149e-05 1.64193 0.0410738 1.33611C0.0851398 1.00835 0.184512 0.694174 0.439343 0.439343C0.694174 0.184512 1.00835 0.0851398 1.33611 0.0410738C1.64193 -4.29131e-05 2.02382 -2.25297e-05 2.46705 1.12918e-06H2.46709Z" fill="var(--fill-0, #D97706)"/>
</g>
</svg>
