<svg preserveAspectRatio="none" width="100%" height="100%" overflow="visible" style="display: block;" viewBox="0 0 20.5 21.5" fill="none" xmlns="http://www.w3.org/2000/svg">
<g id="elements">
<path id="Vector" d="M16.25 0.75V2.75M4.25 0.75V2.75" stroke="var(--stroke-0, #687782)" stroke-width="1.5" stroke-linecap="round" stroke-linejoin="round"/>
<path id="Vector_2" d="M0.75 10.9932C0.75 6.63594 0.75 4.45728 2.00212 3.10364C3.25424 1.75 5.26949 1.75 9.3 1.75H11.2C15.2305 1.75 17.2458 1.75 18.4979 3.10364C19.75 4.45728 19.75 6.63594 19.75 10.9932V11.5068C19.75 15.8641 19.75 18.0427 18.4979 19.3964C17.2458 20.75 15.2305 20.75 11.2 20.75H9.3C5.26949 20.75 3.25424 20.75 2.00212 19.3964C0.75 18.0427 0.75 15.8641 0.75 11.5068V10.9932Z" stroke="var(--stroke-0, #687782)" stroke-width="1.5" stroke-linecap="round" stroke-linejoin="round"/>
<path id="Vector 4046" d="M1.25 6.75H19.25" stroke="var(--stroke-0, #687782)" stroke-width="1.5" stroke-linecap="round" stroke-linejoin="round"/>
</g>
</svg>
