<svg preserveAspectRatio="none" width="100%" height="100%" overflow="visible" style="display: block;" viewBox="0 0 13.3334 10.6667" fill="none" xmlns="http://www.w3.org/2000/svg">
<g id="elements">
<g id="Union">
<path d="M0.666687 9.33337C0.298497 9.33337 2.03252e-05 9.63185 2.03252e-05 10C2.03252e-05 10.3682 0.298497 10.6667 0.666687 10.6667H2.66669C3.03488 10.6667 3.33335 10.3682 3.33335 10C3.33335 9.63185 3.03488 9.33337 2.66669 9.33337H0.666687Z" fill="var(--fill-0, #758795)"/>
<path d="M5.00002 10C5.00002 9.63185 5.2985 9.33337 5.66669 9.33337H7.66669C8.03488 9.33337 8.33335 9.63185 8.33335 10C8.33335 10.3682 8.03488 10.6667 7.66669 10.6667L5.66669 10.6667C5.2985 10.6667 5.00002 10.3682 5.00002 10Z" fill="var(--fill-0, #758795)"/>
<path d="M10 10C10 9.63185 10.2985 9.33337 10.6667 9.33337H12.6667C13.0349 9.33337 13.3334 9.63185 13.3334 10C13.3334 10.3682 13.0349 10.6667 12.6667 10.6667L10.6667 10.6667C10.2985 10.6667 10 10.3682 10 10Z" fill="var(--fill-0, #758795)"/>
</g>
<path id="Vector (Stroke)" fill-rule="evenodd" clip-rule="evenodd" d="M3.19528 0.195303C3.45563 -0.0650467 3.87774 -0.0650467 4.13809 0.195303L6.33335 2.39056L8.52862 0.195303C8.78896 -0.0650467 9.21108 -0.0650467 9.47142 0.195303C9.73177 0.455652 9.73177 0.877762 9.47142 1.13811L7.27616 3.33337L9.47142 5.52864C9.73177 5.78899 9.73177 6.2111 9.47142 6.47145C9.21108 6.73179 8.78896 6.73179 8.52862 6.47145L6.33335 4.27618L4.13809 6.47145C3.87774 6.73179 3.45563 6.73179 3.19528 6.47145C2.93493 6.2111 2.93493 5.78899 3.19528 5.52864L5.39054 3.33337L3.19528 1.13811C2.93493 0.877762 2.93493 0.455652 3.19528 0.195303Z" fill="var(--fill-0, #758795)"/>
</g>
</svg>
