<svg preserveAspectRatio="none" width="100%" height="100%" overflow="visible" style="display: block;" viewBox="0 0 20.5 20.5" fill="none" xmlns="http://www.w3.org/2000/svg">
<g id="elements">
<path id="Rectangle 116" d="M0.75 10.25C0.75 5.77166 0.75 3.53249 2.14124 2.14124C3.53249 0.75 5.77166 0.75 10.25 0.75C14.7283 0.75 16.9675 0.75 18.3588 2.14124C19.75 3.53249 19.75 5.77166 19.75 10.25C19.75 14.7283 19.75 16.9675 18.3588 18.3588C16.9675 19.75 14.7283 19.75 10.25 19.75C5.77166 19.75 3.53249 19.75 2.14124 18.3588C0.75 16.9675 0.75 14.7283 0.75 10.25Z" stroke="var(--stroke-0, #687782)" stroke-width="1.5" stroke-linecap="round" stroke-linejoin="round"/>
<path id="Vector" d="M19.75 11.75H14.8243C13.9822 11.75 13.3206 12.4536 12.9495 13.1972C12.5463 14.0051 11.7389 14.75 10.25 14.75C8.76113 14.75 7.95373 14.0051 7.55054 13.1972C7.17942 12.4536 6.51777 11.75 5.67566 11.75H0.75" stroke="var(--stroke-0, #687782)" stroke-width="1.5" stroke-linejoin="round"/>
</g>
</svg>
