<svg preserveAspectRatio="none" width="100%" height="100%" overflow="visible" style="display: block;" viewBox="0 0 2.34974 10.3334" fill="none" xmlns="http://www.w3.org/2000/svg">
<g id="elements">
<path id="Vector (Stroke)" fill-rule="evenodd" clip-rule="evenodd" d="M0.00520825 5.16669C0.00520825 4.52235 0.527543 4.00002 1.17188 4.00002H1.17786C1.8222 4.00002 2.34453 4.52235 2.34453 5.16669C2.34453 5.81102 1.8222 6.33335 1.17786 6.33335H1.17188C0.527543 6.33335 0.00520825 5.81102 0.00520825 5.16669Z" fill="var(--fill-0, #1A2228)"/>
<path id="Vector (Stroke)_2" fill-rule="evenodd" clip-rule="evenodd" d="M0 9.16669C0 8.52236 0.522334 8.00002 1.16667 8.00002H1.17265C1.81699 8.00002 2.33932 8.52236 2.33932 9.16669C2.33932 9.81102 1.81699 10.3334 1.17265 10.3334H1.16667C0.522334 10.3334 0 9.81102 0 9.16669Z" fill="var(--fill-0, #1A2228)"/>
<path id="Vector (Stroke)_3" fill-rule="evenodd" clip-rule="evenodd" d="M0.0104167 1.16669C0.0104167 0.522355 0.532751 2.03848e-05 1.17708 2.03848e-05H1.18307C1.8274 2.03848e-05 2.34974 0.522355 2.34974 1.16669C2.34974 1.81102 1.8274 2.33335 1.18307 2.33335H1.17708C0.532751 2.33335 0.0104167 1.81102 0.0104167 1.16669Z" fill="var(--fill-0, #1A2228)"/>
</g>
</svg>
