<svg preserveAspectRatio="none" width="100%" height="100%" overflow="visible" style="display: block;" viewBox="0 0 14.9846 14.3877" fill="none" xmlns="http://www.w3.org/2000/svg">
<path id="shape" fill-rule="evenodd" clip-rule="evenodd" d="M8.89743 1.405C8.89743 0.62904 8.26839 0 7.49243 0C6.71647 0 6.08743 0.62904 6.08743 1.405V5.87117L1.83955 4.49095C1.10157 4.25116 0.30893 4.65503 0.0691449 5.39301C-0.17064 6.131 0.233229 6.92363 0.97121 7.16342L5.2188 8.54354L2.59367 12.1567C2.13757 12.7845 2.27673 13.6631 2.9045 14.1192C3.53226 14.5753 4.41091 14.4362 4.867 13.8084L7.49227 10.195L10.1176 13.8085C10.5737 14.4362 11.4523 14.5754 12.0801 14.1193C12.7079 13.6632 12.847 12.7846 12.3909 12.1568L9.76582 8.54363L14.0134 7.16352C14.7513 6.92374 15.1552 6.1311 14.9154 5.39312C14.6756 4.65514 13.883 4.25127 13.145 4.49105L8.89743 5.87118V1.405ZM8.48853 1.40478C8.48853 1.95491 8.04256 2.40088 7.49243 2.40088C6.9423 2.40088 6.49634 1.95491 6.49634 1.40478C6.49634 0.854658 6.9423 0.408691 7.49243 0.408691C8.04256 0.408691 8.48853 0.854658 8.48853 1.40478ZM13.5792 6.82324C14.1293 6.82324 14.5753 6.37728 14.5753 5.82715C14.5753 5.27702 14.1293 4.83105 13.5792 4.83105C13.0291 4.83105 12.5831 5.27702 12.5831 5.82715C12.5831 6.37728 13.0291 6.82324 13.5792 6.82324ZM12.2503 12.9827C12.2503 13.5328 11.8044 13.9788 11.2542 13.9788C10.7041 13.9788 10.2581 13.5328 10.2581 12.9827C10.2581 12.4325 10.7041 11.9866 11.2542 11.9866C11.8044 11.9866 12.2503 12.4325 12.2503 12.9827ZM3.73032 13.9785C4.28044 13.9785 4.72641 13.5325 4.72641 12.9824C4.72641 12.4323 4.28044 11.9863 3.73032 11.9863C3.18019 11.9863 2.73422 12.4323 2.73422 12.9824C2.73422 13.5325 3.18019 13.9785 3.73032 13.9785ZM2.40146 5.81982C2.40146 6.36995 1.95549 6.81592 1.40536 6.81592C0.855238 6.81592 0.409271 6.36995 0.409271 5.81982C0.409271 5.2697 0.855238 4.82373 1.40536 4.82373C1.95549 4.82373 2.40146 5.2697 2.40146 5.81982Z" fill="var(--fill-0, #0094C7)"/>
</svg>
