<svg preserveAspectRatio="none" width="100%" height="100%" overflow="visible" style="display: block;" viewBox="0 0 14.3353 14.3343" fill="none" xmlns="http://www.w3.org/2000/svg">
<g id="elements">
<path id="Vector (Stroke)" d="M7.16537 8.13901e-05C7.86488 8.13901e-05 8.41589 0.528436 8.76766 1.24136L9.94235 3.61019C9.97797 3.6835 10.0624 3.78674 10.1893 3.88117C10.3162 3.97551 10.4403 4.02756 10.522 4.04128L12.6485 4.3975C13.4166 4.52657 14.0603 4.90308 14.2693 5.55868C14.4782 6.21374 14.1722 6.89448 13.6199 7.44784L13.6193 7.44838L11.9674 9.11399C11.9019 9.18 11.8286 9.30436 11.7826 9.46638C11.7369 9.6273 11.7328 9.77387 11.7535 9.86858L11.7538 9.86989L12.2265 11.9303C12.4225 12.7879 12.3575 13.6383 11.7527 14.0829C11.1458 14.529 10.3164 14.3312 9.56298 13.8825L7.56967 12.6928C7.48597 12.6427 7.34221 12.6022 7.1687 12.6022C6.99646 12.6022 6.84968 12.6422 6.76053 12.6941L6.75927 12.6948L4.76989 13.8822C4.01734 14.3325 3.189 14.5268 2.58204 14.0802C1.97763 13.6356 1.9094 12.7868 2.10604 11.9299L2.57857 9.86989L2.57886 9.86858C2.59958 9.77387 2.59552 9.6273 2.54983 9.46638C2.50384 9.30436 2.43049 9.18 2.36502 9.11399L0.711869 7.44717C0.163066 6.89384 -0.141893 6.21368 0.0652672 5.55958C0.273031 4.90358 0.915588 4.52661 1.68419 4.39746L3.80885 4.04154L3.80952 4.04143C3.88742 4.02791 4.00977 3.97645 4.13629 3.88187C4.26304 3.78711 4.3477 3.68365 4.38338 3.61019L4.38518 3.60653L5.55838 1.24073L5.55885 1.2398C5.91394 0.527465 6.46666 8.13901e-05 7.16537 8.13901e-05Z" fill="var(--fill-0, #01AF7B)"/>
</g>
</svg>
