<svg preserveAspectRatio="none" width="100%" height="100%" overflow="visible" style="display: block;" viewBox="0 0 14.3334 14.3334" fill="none" xmlns="http://www.w3.org/2000/svg">
<g id="elements">
<path id="Rectangle 2088" d="M12.197 10.1356C13.2879 10.7247 13.8334 11.0193 13.8334 11.5C13.8334 11.9807 13.2879 12.2753 12.197 12.8644L11.4541 13.2656C10.6163 13.718 10.1974 13.9442 9.99598 13.7798C9.50268 13.3769 10.2712 12.3374 10.4602 11.9692C10.6518 11.596 10.6484 11.3973 10.4602 11.0308C10.2712 10.6626 9.50268 9.62305 9.99598 9.22024C10.1974 9.05577 10.6163 9.28199 11.4541 9.73442L12.197 10.1356Z" fill="var(--fill-0, white)"/>
<path id="Path (Stroke)" fill-rule="evenodd" clip-rule="evenodd" d="M7.16669 3.83333C7.53488 3.83333 7.83335 4.13181 7.83335 4.5V6.89052L8.63809 7.69526C8.89844 7.95561 8.89844 8.37772 8.63809 8.63807C8.37774 8.89842 7.95563 8.89842 7.69528 8.63807L6.69528 7.63807C6.57026 7.51305 6.50002 7.34348 6.50002 7.16667V4.5C6.50002 4.13181 6.7985 3.83333 7.16669 3.83333Z" fill="var(--fill-0, #635BFF)"/>
<path id="Rectangle 2087 (Stroke)" d="M11.6616 9.2782L12.4716 9.71563C12.9854 9.99306 13.4229 10.2293 13.7269 10.4604C14.0459 10.703 14.3334 11.0262 14.3334 11.5C14.3334 11.9738 14.0459 12.297 13.7269 12.5396C13.4229 12.7707 12.9854 13.0069 12.4716 13.2844L12.4716 13.2844L11.6616 13.7218C11.2684 13.9341 10.9326 14.1155 10.6699 14.2191C10.5343 14.2726 10.3802 14.3214 10.2228 14.3314C10.0532 14.3422 9.85322 14.3087 9.67973 14.167C9.40238 13.9406 9.32469 13.6291 9.33413 13.3611C9.343 13.1095 9.4268 12.863 9.51332 12.663C9.6026 12.4566 9.71322 12.2587 9.80692 12.0984C9.8449 12.0335 9.87776 11.9784 9.90607 11.9309L9.90607 11.9309C9.9552 11.8485 9.99064 11.7891 10.0154 11.7408C10.0971 11.5817 10.1027 11.5234 10.1026 11.499C10.1026 11.4741 10.0964 11.417 10.0154 11.2592C9.99064 11.2109 9.9552 11.1515 9.90606 11.0691L9.90606 11.0691C9.87775 11.0216 9.8449 10.9665 9.80692 10.9016C9.71322 10.7413 9.6026 10.5434 9.51332 10.337C9.4268 10.137 9.343 9.89053 9.33413 9.6389C9.32469 9.3709 9.40238 9.05943 9.67973 8.83296C9.85322 8.69129 10.0532 8.65776 10.2228 8.66859C10.3802 8.67863 10.5343 8.7274 10.6699 8.78087C10.9326 8.88451 11.2684 9.06585 11.6616 9.2782L11.6616 9.2782Z" fill="var(--fill-0, #635BFF)"/>
<path id="Vector (Stroke)" fill-rule="evenodd" clip-rule="evenodd" d="M7.16669 1.30303C3.92829 1.30303 1.30305 3.92827 1.30305 7.16667C1.30305 10.4051 3.92829 13.0303 7.16669 13.0303C7.37029 13.0303 7.57127 13.0199 7.76915 12.9998C8.12712 12.9633 8.44689 13.2239 8.48337 13.5819C8.51986 13.9398 8.25925 14.2596 7.90128 14.2961C7.65957 14.3207 7.41449 14.3333 7.16669 14.3333C3.20865 14.3333 2.0355e-05 11.1247 2.0355e-05 7.16667C2.0355e-05 3.20863 3.20865 0 7.16669 0C11.1247 0 14.3334 3.20863 14.3334 7.16667C14.3334 7.65668 14.2841 8.13586 14.19 8.5993C14.1184 8.95193 13.7745 9.17977 13.4219 9.10819C13.0693 9.03661 12.8414 8.69272 12.913 8.34009C12.9899 7.96149 13.0303 7.56914 13.0303 7.16667C13.0303 3.92827 10.4051 1.30303 7.16669 1.30303Z" fill="var(--fill-0, #635BFF)"/>
</g>
</svg>
