<svg preserveAspectRatio="none" width="100%" height="100%" overflow="visible" style="display: block;" viewBox="0 0 15 15" fill="none" xmlns="http://www.w3.org/2000/svg">
<g id="chevron">
<path id="Union" d="M13.2804 5.78013C13.5732 5.48723 13.5732 5.01243 13.2804 4.71958C12.9875 4.42694 12.5127 4.4269 12.2199 4.71958L7.62415 9.31626C7.58472 9.3557 7.5514 9.39905 7.52259 9.44419L7.51478 9.45103L2.78431 4.71958C2.49147 4.4269 2.01662 4.42694 1.72376 4.71958C1.43091 5.01243 1.431 5.48723 1.72376 5.78013L2.36634 6.42271C2.36874 6.42518 2.37073 6.42807 2.37317 6.43052L6.96985 11.0272C7.12001 11.1773 7.31801 11.2498 7.51478 11.246C7.71143 11.2497 7.90963 11.1773 8.0597 11.0272L12.6554 6.43052C12.6948 6.39111 12.7292 6.34868 12.7579 6.30357L13.2804 5.78013Z" fill="var(--fill-0, #758795)"/>
</g>
</svg>
