<svg preserveAspectRatio="none" width="100%" height="100%" overflow="visible" style="display: block;" viewBox="0 0 2.34974 10.3333" fill="none" xmlns="http://www.w3.org/2000/svg">
<g id="elements">
<path id="Vector (Stroke)" fill-rule="evenodd" clip-rule="evenodd" d="M0.00520825 5.16667C0.00520825 4.52234 0.527543 4 1.17188 4H1.17786C1.8222 4 2.34453 4.52234 2.34453 5.16667C2.34453 5.811 1.8222 6.33334 1.17786 6.33334H1.17188C0.527543 6.33334 0.00520825 5.811 0.00520825 5.16667Z" fill="var(--fill-0, #1A2228)"/>
<path id="Vector (Stroke)_2" fill-rule="evenodd" clip-rule="evenodd" d="M0 9.16667C0 8.52234 0.522334 8.00001 1.16667 8.00001H1.17265C1.81699 8.00001 2.33932 8.52234 2.33932 9.16667C2.33932 9.81101 1.81699 10.3333 1.17265 10.3333H1.16667C0.522334 10.3333 0 9.81101 0 9.16667Z" fill="var(--fill-0, #1A2228)"/>
<path id="Vector (Stroke)_3" fill-rule="evenodd" clip-rule="evenodd" d="M0.0104167 1.16667C0.0104167 0.52234 0.532751 5.126e-06 1.17708 5.126e-06H1.18307C1.8274 5.126e-06 2.34974 0.52234 2.34974 1.16667C2.34974 1.811 1.8274 2.33334 1.18307 2.33334H1.17708C0.532751 2.33334 0.0104167 1.811 0.0104167 1.16667Z" fill="var(--fill-0, #1A2228)"/>
</g>
</svg>
