<svg preserveAspectRatio="none" width="100%" height="100%" overflow="visible" style="display: block;" viewBox="0 0 14.3333 14.3334" fill="none" xmlns="http://www.w3.org/2000/svg">
<g id="elements">
<path id="Rectangle 2088" d="M12.197 10.1356C13.2879 10.7247 13.8333 11.0193 13.8333 11.5C13.8333 11.9808 13.2879 12.2753 12.197 12.8644L11.4541 13.2656C10.6163 13.718 10.1974 13.9442 9.99596 13.7798C9.50266 13.377 10.2712 12.3374 10.4602 11.9692C10.6518 11.596 10.6484 11.3973 10.4602 11.0309C10.2712 10.6626 9.50266 9.62307 9.99596 9.22026C10.1974 9.05579 10.6163 9.28201 11.4541 9.73444L12.197 10.1356Z" fill="var(--fill-0, white)"/>
<path id="Path (Stroke)" fill-rule="evenodd" clip-rule="evenodd" d="M7.16667 3.83335C7.53486 3.83335 7.83333 4.13183 7.83333 4.50002V6.89054L8.63807 7.69528C8.89842 7.95563 8.89842 8.37774 8.63807 8.63809C8.37772 8.89844 7.95561 8.89844 7.69526 8.63809L6.69526 7.63809C6.57024 7.51307 6.5 7.3435 6.5 7.16669V4.50002C6.5 4.13183 6.79848 3.83335 7.16667 3.83335Z" fill="var(--fill-0, #635BFF)"/>
<path id="Rectangle 2087 (Stroke)" d="M11.6615 9.27822L12.4716 9.71565C12.9854 9.99308 13.4229 10.2293 13.7269 10.4604C14.0459 10.703 14.3333 11.0262 14.3333 11.5C14.3333 11.9738 14.0459 12.2971 13.7269 12.5396C13.4229 12.7707 12.9854 13.007 12.4716 13.2844L12.4716 13.2844L11.6615 13.7218C11.2684 13.9342 10.9326 14.1155 10.6698 14.2192C10.5343 14.2726 10.3802 14.3214 10.2228 14.3314C10.0531 14.3423 9.8532 14.3087 9.67971 14.1671C9.40236 13.9406 9.32467 13.6291 9.33411 13.3611C9.34298 13.1095 9.42678 12.863 9.51329 12.663C9.60258 12.4566 9.7132 12.2587 9.8069 12.0985C9.84488 12.0335 9.87774 11.9784 9.90604 11.9309L9.90605 11.9309C9.95518 11.8486 9.99062 11.7891 10.0154 11.7408C10.0971 11.5817 10.1027 11.5234 10.1026 11.499C10.1025 11.4741 10.0964 11.417 10.0154 11.2592C9.99062 11.2109 9.95518 11.1515 9.90604 11.0691L9.90604 11.0691C9.87773 11.0216 9.84488 10.9665 9.8069 10.9016C9.7132 10.7413 9.60258 10.5434 9.51329 10.337C9.42678 10.137 9.34298 9.89055 9.33411 9.63892C9.32467 9.37092 9.40236 9.05945 9.67971 8.83298C9.8532 8.69131 10.0531 8.65778 10.2228 8.66861C10.3802 8.67865 10.5343 8.72742 10.6698 8.78089C10.9326 8.88453 11.2684 9.06587 11.6615 9.27822L11.6615 9.27822Z" fill="var(--fill-0, #635BFF)"/>
<path id="Vector (Stroke)" fill-rule="evenodd" clip-rule="evenodd" d="M7.16667 1.30305C3.92827 1.30305 1.30303 3.92829 1.30303 7.16669C1.30303 10.4051 3.92827 13.0303 7.16667 13.0303C7.37027 13.0303 7.57125 13.02 7.76913 12.9998C8.1271 12.9633 8.44687 13.2239 8.48335 13.5819C8.51984 13.9399 8.25923 14.2596 7.90126 14.2961C7.65955 14.3208 7.41447 14.3334 7.16667 14.3334C3.20863 14.3334 0 11.1247 0 7.16669C0 3.20865 3.20863 2.0355e-05 7.16667 2.0355e-05C11.1247 2.0355e-05 14.3333 3.20865 14.3333 7.16669C14.3333 7.6567 14.2841 8.13588 14.19 8.59932C14.1184 8.95195 13.7745 9.17979 13.4219 9.10821C13.0693 9.03663 12.8414 8.69274 12.913 8.34011C12.9899 7.96151 13.0303 7.56916 13.0303 7.16669C13.0303 3.92829 10.4051 1.30305 7.16667 1.30305Z" fill="var(--fill-0, #635BFF)"/>
</g>
</svg>
