<svg preserveAspectRatio="none" width="100%" height="100%" overflow="visible" style="display: block;" viewBox="0 0 19.5 19.5" fill="none" xmlns="http://www.w3.org/2000/svg">
<g id="elements">
<path id="Rectangle 2328 (Stroke)" fill-rule="evenodd" clip-rule="evenodd" d="M17.2282 15C17.2355 15 17.2427 15 17.25 15C17.2573 15 17.2645 15 17.2718 15C17.486 15 17.6829 15 17.8482 15.0113C18.0259 15.0234 18.2212 15.051 18.4197 15.1332C18.8485 15.3108 19.1892 15.6515 19.3668 16.0803C19.449 16.2788 19.4766 16.4741 19.4887 16.6518C19.5 16.8171 19.5 17.014 19.5 17.2282V17.2718C19.5 17.486 19.5 17.6829 19.4887 17.8482C19.4766 18.0259 19.449 18.2212 19.3668 18.4197C19.1892 18.8485 18.8485 19.1892 18.4197 19.3668C18.2212 19.449 18.0259 19.4766 17.8482 19.4887C17.6829 19.5 17.486 19.5 17.2718 19.5H17.2282C17.014 19.5 16.8171 19.5 16.6518 19.4887C16.4741 19.4766 16.2788 19.449 16.0803 19.3668C15.6515 19.1892 15.3108 18.8485 15.1332 18.4197C15.051 18.2212 15.0234 18.0259 15.0113 17.8482C15 17.6829 15 17.486 15 17.2718C15 17.2645 15 17.2573 15 17.25C15 17.2427 15 17.2355 15 17.2282C15 17.014 15 16.8171 15.0113 16.6518C15.0234 16.4741 15.051 16.2788 15.1332 16.0803C15.3108 15.6515 15.6515 15.3108 16.0803 15.1332C16.2788 15.051 16.4741 15.0234 16.6518 15.0113C16.8171 15 17.014 15 17.2282 15Z" fill="var(--fill-0, white)"/>
<path id="Rectangle 2331 (Stroke)" fill-rule="evenodd" clip-rule="evenodd" d="M17.2282 7.5C17.2355 7.5 17.2427 7.5 17.25 7.5C17.2573 7.5 17.2645 7.5 17.2718 7.5C17.486 7.49999 17.6829 7.49998 17.8482 7.51126C18.0259 7.52338 18.2212 7.55099 18.4197 7.63321C18.8485 7.81083 19.1892 8.15151 19.3668 8.58031C19.449 8.77881 19.4766 8.97415 19.4887 9.15179C19.5 9.31712 19.5 9.51396 19.5 9.72824V9.77176C19.5 9.98604 19.5 10.1829 19.4887 10.3482C19.4766 10.5259 19.449 10.7212 19.3668 10.9197C19.1892 11.3485 18.8485 11.6892 18.4197 11.8668C18.2212 11.949 18.0259 11.9766 17.8482 11.9887C17.6829 12 17.486 12 17.2718 12H17.2282C17.014 12 16.8171 12 16.6518 11.9887C16.4741 11.9766 16.2788 11.949 16.0803 11.8668C15.6515 11.6892 15.3108 11.3485 15.1332 10.9197C15.051 10.7212 15.0234 10.5259 15.0113 10.3482C15 10.1829 15 9.98604 15 9.77176C15 9.76453 15 9.75727 15 9.75C15 9.74273 15 9.73548 15 9.72825C15 9.51397 15 9.31712 15.0113 9.15179C15.0234 8.97415 15.051 8.77881 15.1332 8.58031C15.3108 8.15151 15.6515 7.81083 16.0803 7.63321C16.2788 7.55099 16.4741 7.52338 16.6518 7.51126C16.8171 7.49998 17.014 7.49999 17.2282 7.5Z" fill="var(--fill-0, white)"/>
<path id="Rectangle 2334 (Stroke)" fill-rule="evenodd" clip-rule="evenodd" d="M17.2282 8.59825e-07C17.2355 1.27706e-06 17.2427 1.69429e-06 17.25 1.69429e-06C17.2573 1.69429e-06 17.2645 1.27706e-06 17.2718 8.59825e-07C17.486 -1.19552e-05 17.6829 -2.36975e-05 17.8482 0.0112564C18.0259 0.0233769 18.2212 0.0509897 18.4197 0.133213C18.8485 0.310827 19.1892 0.651507 19.3668 1.08031C19.449 1.27881 19.4766 1.47415 19.4887 1.65179C19.5 1.81712 19.5 2.01396 19.5 2.22824V2.27176C19.5 2.48604 19.5 2.68289 19.4887 2.84821C19.4766 3.02585 19.449 3.22119 19.3668 3.4197C19.1892 3.8485 18.8485 4.18918 18.4197 4.36679C18.2212 4.44901 18.0259 4.47663 17.8482 4.48875C17.6829 4.50003 17.486 4.50002 17.2718 4.5H17.2282C17.014 4.50002 16.8171 4.50003 16.6518 4.48875C16.4741 4.47663 16.2788 4.44901 16.0803 4.36679C15.6515 4.18918 15.3108 3.8485 15.1332 3.4197C15.051 3.22119 15.0234 3.02585 15.0113 2.84821C15 2.68288 15 2.48604 15 2.27176C15 2.26453 15 2.25727 15 2.25C15 2.24273 15 2.23548 15 2.22825C15 2.01397 15 1.81712 15.0113 1.65179C15.0234 1.47415 15.051 1.27881 15.1332 1.08031C15.3108 0.651507 15.6515 0.310827 16.0803 0.133213C16.2788 0.0509897 16.4741 0.0233769 16.6518 0.0112564C16.8171 -2.36975e-05 17.014 -1.19552e-05 17.2282 8.59825e-07Z" fill="var(--fill-0, white)"/>
<path id="Rectangle 2329 (Stroke)" fill-rule="evenodd" clip-rule="evenodd" d="M9.72825 15C9.73548 15 9.74273 15 9.75 15C9.75727 15 9.76453 15 9.77176 15C9.98604 15 10.1829 15 10.3482 15.0113C10.5259 15.0234 10.7212 15.051 10.9197 15.1332C11.3485 15.3108 11.6892 15.6515 11.8668 16.0803C11.949 16.2788 11.9766 16.4741 11.9887 16.6518C12 16.8171 12 17.014 12 17.2282V17.2718C12 17.486 12 17.6829 11.9887 17.8482C11.9766 18.0259 11.949 18.2212 11.8668 18.4197C11.6892 18.8485 11.3485 19.1892 10.9197 19.3668C10.7212 19.449 10.5259 19.4766 10.3482 19.4887C10.1829 19.5 9.98604 19.5 9.77176 19.5H9.72824C9.51396 19.5 9.31712 19.5 9.15179 19.4887C8.97415 19.4766 8.77881 19.449 8.58031 19.3668C8.15151 19.1892 7.81083 18.8485 7.63321 18.4197C7.55099 18.2212 7.52338 18.0259 7.51126 17.8482C7.49998 17.6829 7.49999 17.486 7.5 17.2718C7.5 17.2645 7.5 17.2573 7.5 17.25C7.5 17.2427 7.5 17.2355 7.5 17.2282C7.49999 17.014 7.49998 16.8171 7.51126 16.6518C7.52338 16.4741 7.55099 16.2788 7.63321 16.0803C7.81083 15.6515 8.15151 15.3108 8.58031 15.1332C8.77881 15.051 8.97415 15.0234 9.15179 15.0113C9.31712 15 9.51397 15 9.72825 15Z" fill="var(--fill-0, white)"/>
<path id="Rectangle 2332 (Stroke)" fill-rule="evenodd" clip-rule="evenodd" d="M9.72825 7.5C9.73548 7.5 9.74273 7.5 9.75 7.5C9.75727 7.5 9.76453 7.5 9.77176 7.5C9.98604 7.49999 10.1829 7.49998 10.3482 7.51126C10.5259 7.52338 10.7212 7.55099 10.9197 7.63321C11.3485 7.81083 11.6892 8.15151 11.8668 8.58031C11.949 8.77881 11.9766 8.97415 11.9887 9.15179C12 9.31712 12 9.51396 12 9.72824V9.77176C12 9.98604 12 10.1829 11.9887 10.3482C11.9766 10.5259 11.949 10.7212 11.8668 10.9197C11.6892 11.3485 11.3485 11.6892 10.9197 11.8668C10.7212 11.949 10.5259 11.9766 10.3482 11.9887C10.1829 12 9.98604 12 9.77176 12H9.72824C9.51396 12 9.31712 12 9.15179 11.9887C8.97415 11.9766 8.77881 11.949 8.58031 11.8668C8.15151 11.6892 7.81083 11.3485 7.63321 10.9197C7.55099 10.7212 7.52338 10.5259 7.51126 10.3482C7.49998 10.1829 7.49999 9.98604 7.5 9.77176C7.5 9.76453 7.5 9.75727 7.5 9.75C7.5 9.74273 7.5 9.73548 7.5 9.72825C7.49999 9.51397 7.49998 9.31712 7.51126 9.15179C7.52338 8.97415 7.55099 8.77881 7.63321 8.58031C7.81083 8.15151 8.15151 7.81083 8.58031 7.63321C8.77881 7.55099 8.97415 7.52338 9.15179 7.51126C9.31712 7.49998 9.51397 7.49999 9.72825 7.5Z" fill="var(--fill-0, white)"/>
<path id="Rectangle 2335 (Stroke)" fill-rule="evenodd" clip-rule="evenodd" d="M9.72825 8.59825e-07C9.73548 1.27706e-06 9.74273 1.69429e-06 9.75 1.69429e-06C9.75727 1.69429e-06 9.76453 1.27706e-06 9.77176 8.59825e-07C9.98604 -1.19552e-05 10.1829 -2.36975e-05 10.3482 0.0112564C10.5259 0.0233769 10.7212 0.0509897 10.9197 0.133213C11.3485 0.310827 11.6892 0.651507 11.8668 1.08031C11.949 1.27881 11.9766 1.47415 11.9887 1.65179C12 1.81712 12 2.01396 12 2.22824V2.27176C12 2.48604 12 2.68289 11.9887 2.84821C11.9766 3.02585 11.949 3.22119 11.8668 3.4197C11.6892 3.8485 11.3485 4.18918 10.9197 4.36679C10.7212 4.44901 10.5259 4.47663 10.3482 4.48875C10.1829 4.50003 9.98604 4.50002 9.77176 4.5H9.72824C9.51396 4.50002 9.31712 4.50003 9.15179 4.48875C8.97415 4.47663 8.77881 4.44901 8.58031 4.36679C8.15151 4.18918 7.81083 3.8485 7.63321 3.4197C7.55099 3.22119 7.52338 3.02585 7.51126 2.84821C7.49998 2.68288 7.49999 2.48604 7.5 2.27176C7.5 2.26453 7.5 2.25727 7.5 2.25C7.5 2.24273 7.5 2.23548 7.5 2.22825C7.49999 2.01397 7.49998 1.81712 7.51126 1.65179C7.52338 1.47415 7.55099 1.27881 7.63321 1.08031C7.81083 0.651507 8.15151 0.310827 8.58031 0.133213C8.77881 0.0509897 8.97415 0.0233769 9.15179 0.0112564C9.31712 -2.36975e-05 9.51397 -1.19552e-05 9.72825 8.59825e-07Z" fill="var(--fill-0, white)"/>
<path id="Rectangle 2330 (Stroke)" fill-rule="evenodd" clip-rule="evenodd" d="M2.22825 15C2.23548 15 2.24273 15 2.25 15C2.25727 15 2.26453 15 2.27176 15C2.48604 15 2.68288 15 2.84821 15.0113C3.02585 15.0234 3.22119 15.051 3.4197 15.1332C3.8485 15.3108 4.18918 15.6515 4.36679 16.0803C4.44901 16.2788 4.47663 16.4741 4.48875 16.6518C4.50003 16.8171 4.50002 17.014 4.5 17.2282V17.2718C4.50002 17.486 4.50003 17.6829 4.48875 17.8482C4.47663 18.0259 4.44901 18.2212 4.36679 18.4197C4.18918 18.8485 3.8485 19.1892 3.4197 19.3668C3.22119 19.449 3.02585 19.4766 2.84821 19.4887C2.68289 19.5 2.48604 19.5 2.27176 19.5H2.22824C2.01396 19.5 1.81712 19.5 1.65179 19.4887C1.47415 19.4766 1.27881 19.449 1.08031 19.3668C0.651507 19.1892 0.310827 18.8485 0.133213 18.4197C0.0509897 18.2212 0.0233769 18.0259 0.0112564 17.8482C-2.36975e-05 17.6829 -1.19552e-05 17.486 8.59825e-07 17.2718C1.27706e-06 17.2645 1.69429e-06 17.2573 1.69429e-06 17.25C1.69429e-06 17.2427 1.27706e-06 17.2355 8.59825e-07 17.2282C-1.19552e-05 17.014 -2.36975e-05 16.8171 0.0112564 16.6518C0.0233769 16.4741 0.0509897 16.2788 0.133213 16.0803C0.310827 15.6515 0.651507 15.3108 1.08031 15.1332C1.27881 15.051 1.47415 15.0234 1.65179 15.0113C1.81712 15 2.01397 15 2.22825 15Z" fill="var(--fill-0, white)"/>
<path id="Rectangle 2333 (Stroke)" fill-rule="evenodd" clip-rule="evenodd" d="M2.22825 7.5C2.23548 7.5 2.24273 7.5 2.25 7.5C2.25727 7.5 2.26453 7.5 2.27176 7.5C2.48604 7.49999 2.68288 7.49998 2.84821 7.51126C3.02585 7.52338 3.22119 7.55099 3.4197 7.63321C3.8485 7.81083 4.18918 8.15151 4.36679 8.58031C4.44901 8.77881 4.47663 8.97415 4.48875 9.15179C4.50003 9.31712 4.50002 9.51396 4.5 9.72824V9.77176C4.50002 9.98604 4.50003 10.1829 4.48875 10.3482C4.47663 10.5259 4.44901 10.7212 4.36679 10.9197C4.18918 11.3485 3.8485 11.6892 3.4197 11.8668C3.22119 11.949 3.02585 11.9766 2.84821 11.9887C2.68289 12 2.48604 12 2.27176 12H2.22824C2.01396 12 1.81712 12 1.65179 11.9887C1.47415 11.9766 1.27881 11.949 1.08031 11.8668C0.651507 11.6892 0.310827 11.3485 0.133213 10.9197C0.0509897 10.7212 0.0233769 10.5259 0.0112564 10.3482C-2.36975e-05 10.1829 -1.19552e-05 9.98604 8.59825e-07 9.77176C1.27706e-06 9.76453 1.69429e-06 9.75727 1.69429e-06 9.75C1.69429e-06 9.74273 1.27706e-06 9.73548 8.59825e-07 9.72825C-1.19552e-05 9.51397 -2.36975e-05 9.31712 0.0112564 9.15179C0.0233769 8.97415 0.0509897 8.77881 0.133213 8.58031C0.310827 8.15151 0.651507 7.81083 1.08031 7.63321C1.27881 7.55099 1.47415 7.52338 1.65179 7.51126C1.81712 7.49998 2.01397 7.49999 2.22825 7.5Z" fill="var(--fill-0, white)"/>
<path id="Rectangle 2336 (Stroke)" fill-rule="evenodd" clip-rule="evenodd" d="M2.22825 8.59825e-07C2.23548 1.27706e-06 2.24273 1.69429e-06 2.25 1.69429e-06C2.25727 1.69429e-06 2.26453 1.27706e-06 2.27176 8.59825e-07C2.48604 -1.19552e-05 2.68288 -2.36975e-05 2.84821 0.0112564C3.02585 0.0233769 3.22119 0.0509897 3.4197 0.133213C3.8485 0.310827 4.18918 0.651507 4.36679 1.08031C4.44901 1.27881 4.47663 1.47415 4.48875 1.65179C4.50003 1.81712 4.50002 2.01396 4.5 2.22824V2.27176C4.50002 2.48604 4.50003 2.68289 4.48875 2.84821C4.47663 3.02585 4.44901 3.22119 4.36679 3.4197C4.18918 3.8485 3.8485 4.18918 3.4197 4.36679C3.22119 4.44901 3.02585 4.47663 2.84821 4.48875C2.68289 4.50003 2.48604 4.50002 2.27176 4.5H2.22824C2.01396 4.50002 1.81712 4.50003 1.65179 4.48875C1.47415 4.47663 1.27881 4.44901 1.08031 4.36679C0.651507 4.18918 0.310827 3.8485 0.133213 3.4197C0.0509897 3.22119 0.0233769 3.02585 0.0112564 2.84821C-2.36975e-05 2.68288 -1.19552e-05 2.48604 8.59825e-07 2.27176C1.27706e-06 2.26453 1.69429e-06 2.25727 1.69429e-06 2.25C1.69429e-06 2.24273 1.27706e-06 2.23548 8.59825e-07 2.22825C-1.19552e-05 2.01397 -2.36975e-05 1.81712 0.0112564 1.65179C0.0233769 1.47415 0.0509897 1.27881 0.133213 1.08031C0.310827 0.651507 0.651507 0.310827 1.08031 0.133213C1.27881 0.0509897 1.47415 0.0233769 1.65179 0.0112564C1.81712 -2.36975e-05 2.01397 -1.19552e-05 2.22825 8.59825e-07Z" fill="var(--fill-0, white)"/>
</g>
</svg>
