<svg preserveAspectRatio="none" width="100%" height="100%" overflow="visible" style="display: block;" viewBox="0 0 20.4997 20.5005" fill="none" xmlns="http://www.w3.org/2000/svg">
<g id="elements">
<path id="Vector" d="M18.7498 14.0778C16.2483 20.0059 8.11386 21.7334 3.45122 17.1141C-1.12072 12.5846 0.294723 4.37876 6.30632 1.74993" stroke="var(--stroke-0, #1A2228)" stroke-width="1.5" stroke-linecap="round"/>
<path id="Vector_2" d="M15.9329 10.7499C17.8205 10.7499 18.7644 10.7499 19.3739 9.90491C19.3967 9.87333 19.4345 9.81667 19.455 9.78354C20.0024 8.89703 19.7203 8.21592 19.1561 6.85371C18.6444 5.61846 17.8945 4.49608 16.949 3.55066C16.0036 2.60524 14.8812 1.85529 13.646 1.34363C12.2838 0.779386 11.6027 0.497263 10.7162 1.0447C10.683 1.06515 10.6264 1.10302 10.5948 1.12579C9.74977 1.73533 9.74977 2.67915 9.74977 4.56679V6.67741C9.74977 8.59721 9.74977 9.55711 10.3462 10.1535C10.9426 10.7499 11.9025 10.7499 13.8223 10.7499H15.9329Z" stroke="var(--stroke-0, #1A2228)" stroke-width="1.5"/>
</g>
</svg>
