<svg preserveAspectRatio="none" width="100%" height="100%" overflow="visible" style="display: block;" viewBox="0 0 12 14.6667" fill="none" xmlns="http://www.w3.org/2000/svg">
<g id="elements">
<path id="Vector (Stroke)" fill-rule="evenodd" clip-rule="evenodd" d="M2.125 0.833374V2.74247C2.125 4.85119 3.8599 6.56065 6 6.56065C8.1401 6.56065 9.875 4.85119 9.875 2.74247V0.833374H11.1667V2.74247C11.1667 5.5541 8.85347 7.83337 6 7.83337C3.14653 7.83337 0.833333 5.5541 0.833333 2.74247V0.833374H2.125Z" fill="var(--fill-0, #758795)"/>
<path id="Vector (Stroke)_2" d="M0.833333 13.8334H11.1667V11.9243C11.1667 9.11265 8.85347 6.83337 6 6.83337C3.14653 6.83337 0.833333 9.11265 0.833333 11.9243V13.8334Z" fill="var(--fill-0, #758795)"/>
<path id="Vector 6703 (Stroke)" fill-rule="evenodd" clip-rule="evenodd" d="M0 0.666707C0 0.298518 0.298477 4.06802e-05 0.666667 4.06802e-05H11.3333C11.7015 4.06802e-05 12 0.298518 12 0.666707C12 1.0349 11.7015 1.33337 11.3333 1.33337H0.666667C0.298477 1.33337 0 1.0349 0 0.666707ZM0 14C0 13.6319 0.298477 13.3334 0.666667 13.3334H11.3333C11.7015 13.3334 12 13.6319 12 14C12 14.3682 11.7015 14.6667 11.3333 14.6667H0.666667C0.298477 14.6667 0 14.3682 0 14Z" fill="var(--fill-0, #758795)"/>
</g>
</svg>
