<svg preserveAspectRatio="none" width="100%" height="100%" overflow="visible" style="display: block;" viewBox="0 0 13.5 9.5" fill="none" xmlns="http://www.w3.org/2000/svg">
<path id="Vector" fill-rule="evenodd" clip-rule="evenodd" d="M0 0.75C0 0.551088 0.0790177 0.360322 0.21967 0.21967C0.360322 0.0790175 0.551088 0 0.75 0H12.75C12.9489 0 13.1397 0.0790175 13.2803 0.21967C13.421 0.360322 13.5 0.551088 13.5 0.75C13.5 0.948912 13.421 1.13968 13.2803 1.28033C13.1397 1.42098 12.9489 1.5 12.75 1.5H0.75C0.551088 1.5 0.360322 1.42098 0.21967 1.28033C0.0790177 1.13968 0 0.948912 0 0.75ZM2.667 4.75C2.667 4.55109 2.74602 4.36032 2.88667 4.21967C3.02732 4.07902 3.21809 4 3.417 4H10.083C10.2819 4 10.4727 4.07902 10.6133 4.21967C10.754 4.36032 10.833 4.55109 10.833 4.75C10.833 4.94891 10.754 5.13968 10.6133 5.28033C10.4727 5.42098 10.2819 5.5 10.083 5.5H3.417C3.21809 5.5 3.02732 5.42098 2.88667 5.28033C2.74602 5.13968 2.667 4.94891 2.667 4.75ZM5.417 8C5.21809 8 5.02732 8.07902 4.88667 8.21967C4.74602 8.36032 4.667 8.55109 4.667 8.75C4.667 8.94891 4.74602 9.13968 4.88667 9.28033C5.02732 9.42098 5.21809 9.5 5.417 9.5H8.083C8.28191 9.5 8.47268 9.42098 8.61333 9.28033C8.75398 9.13968 8.833 8.94891 8.833 8.75C8.833 8.55109 8.75398 8.36032 8.61333 8.21967C8.47268 8.07902 8.28191 8 8.083 8H5.417Z" fill="var(--fill-0, #212B31)"/>
</svg>
