<svg preserveAspectRatio="none" width="100%" height="100%" overflow="visible" style="display: block;" viewBox="0 0 10.3126 10.3126" fill="none" xmlns="http://www.w3.org/2000/svg">
<g id="Group">
<path id="Subtract" fill-rule="evenodd" clip-rule="evenodd" d="M8.90625 10.3125C9.68291 10.3125 10.3125 9.68291 10.3125 8.90625V1.40625C10.3125 0.629591 9.68291 0 8.90625 0H1.40625C0.629627 0 0 0.629591 0 1.40625C0 2.18291 0.629627 2.8125 1.40625 2.8125H5.51129L0.411914 7.91188C-0.137293 8.46105 -0.137293 9.35145 0.411914 9.90062C0.961084 10.4498 1.85145 10.4498 2.40062 9.90062L7.5 4.80124V8.90625C7.5 9.68291 8.12963 10.3125 8.90625 10.3125ZM2.40245 1.40636C2.40245 1.95649 1.95649 2.40245 1.40636 2.40245C0.856234 2.40245 0.410267 1.95649 0.410267 1.40636C0.410267 0.856234 0.856234 0.410267 1.40636 0.410267C1.95649 0.410267 2.40245 0.856234 2.40245 1.40636ZM1.40636 9.90246C1.95649 9.90246 2.40245 9.45649 2.40245 8.90636C2.40245 8.35624 1.95649 7.91027 1.40636 7.91027C0.856234 7.91027 0.410267 8.35624 0.410267 8.90636C0.410267 9.45649 0.856234 9.90246 1.40636 9.90246ZM9.90246 8.90636C9.90246 9.45649 9.45649 9.90246 8.90636 9.90246C8.35624 9.90246 7.91027 9.45649 7.91027 8.90636C7.91027 8.35624 8.35624 7.91027 8.90636 7.91027C9.45649 7.91027 9.90246 8.35624 9.90246 8.90636Z" fill="var(--fill-0, #EB3D3D)"/>
</g>
</svg>
