<svg preserveAspectRatio="none" width="100%" height="100%" overflow="visible" style="display: block;" viewBox="0 0 14.3333 13" fill="none" xmlns="http://www.w3.org/2000/svg">
<g id="elements">
<path id="Polygon 14 (Stroke)" fill-rule="evenodd" clip-rule="evenodd" d="M5.94875 0.217545C6.73537 -0.072515 7.59799 -0.0725151 8.38461 0.217545C9.00855 0.447621 9.512 0.929007 10.0273 1.59851C10.5392 2.26356 11.1112 3.181 11.8466 4.36064L11.8777 4.41044C12.7068 5.74043 13.3493 6.77088 13.7629 7.60807C14.1775 8.4473 14.4066 9.17559 14.3122 9.88455C14.1943 10.7711 13.7535 11.5824 13.0744 12.1587C12.5298 12.6209 11.7957 12.8141 10.8729 12.9072C9.95258 13 8.74895 13 7.19692 13H7.13644C5.5844 13 4.38077 13 3.46045 12.9072C2.53761 12.8141 1.80352 12.6209 1.259 12.1587C0.579892 11.5824 0.13909 10.7711 0.0211104 9.88455C-0.0732395 9.17559 0.15582 8.4473 0.57046 7.60807C0.984085 6.77089 1.6265 5.74046 2.45567 4.41048L2.48674 4.36064C3.22217 3.181 3.79414 2.26356 4.30603 1.59851C4.82136 0.929007 5.3248 0.447621 5.94875 0.217545Z" fill="var(--fill-0, #E10001)"/>
</g>
</svg>
