<svg preserveAspectRatio="none" width="100%" height="100%" overflow="visible" style="display: block;" viewBox="0 0 21.5 21.5" fill="none" xmlns="http://www.w3.org/2000/svg">
<g id="elements">
<path id="Path" d="M10.75 6.75V10.75L12.25 12.25" stroke="var(--stroke-0, #687782)" stroke-width="1.5" stroke-linecap="round" stroke-linejoin="round"/>
<path id="Rectangle 2087" d="M18.2954 15.2034C19.9318 16.087 20.75 16.5289 20.75 17.25C20.75 17.9711 19.9318 18.413 18.2954 19.2966L17.1811 19.8984C15.9244 20.577 15.2961 20.9163 14.9939 20.6696C14.254 20.0654 15.4067 18.5061 15.6903 17.9537C15.9777 17.394 15.9725 17.0959 15.6903 16.5463C15.4067 15.9939 14.254 14.4346 14.9939 13.8304C15.2961 13.5837 15.9244 13.923 17.1811 14.6016L18.2954 15.2034Z" stroke="var(--stroke-0, #687782)" stroke-width="1.5"/>
<path id="Vector" d="M11.7761 20.698C11.4388 20.7324 11.0964 20.75 10.75 20.75C5.22715 20.75 0.75 16.2728 0.75 10.75C0.75 5.22715 5.22715 0.75 10.75 0.75C16.2728 0.75 20.75 5.22715 20.75 10.75C20.75 11.4349 20.6811 12.1038 20.55 12.75" stroke="var(--stroke-0, #687782)" stroke-width="1.5" stroke-linecap="round"/>
</g>
</svg>
