<svg preserveAspectRatio="none" width="100%" height="100%" overflow="visible" style="display: block;" viewBox="0 0 13.6667 13.6667" fill="none" xmlns="http://www.w3.org/2000/svg">
<g id="elements">
<path id="Rectangle 1772 (Stroke)" fill-rule="evenodd" clip-rule="evenodd" d="M6.79522 4.09859e-05H6.87145C8.33192 3.1926e-05 9.47904 2.48551e-05 10.3747 0.120437C11.2924 0.243828 12.0206 0.501851 12.5927 1.07398C13.1649 1.64612 13.4229 2.37429 13.5463 3.29206C13.6667 4.18767 13.6667 5.33479 13.6667 6.79526V6.87149C13.6667 8.33196 13.6667 9.47908 13.5463 10.3747C13.4229 11.2925 13.1649 12.0206 12.5927 12.5928C12.0206 13.1649 11.2924 13.4229 10.3747 13.5463C9.47904 13.6667 8.33192 13.6667 6.87144 13.6667H6.79522C5.33475 13.6667 4.18763 13.6667 3.29202 13.5463C2.37424 13.4229 1.64607 13.1649 1.07394 12.5928C0.50181 12.0206 0.243787 11.2925 0.120396 10.3747C-1.5974e-05 9.47908 -8.90318e-06 8.33196 1.56723e-07 6.87149V6.79526C-8.90318e-06 5.33479 -1.5974e-05 4.18767 0.120396 3.29206C0.243787 2.37428 0.50181 1.64612 1.07394 1.07398C1.64607 0.501851 2.37424 0.243828 3.29202 0.120437C4.18763 2.48551e-05 5.33475 3.1926e-05 6.79522 4.09859e-05Z" fill="var(--fill-0, #758795)"/>
</g>
</svg>
