<svg preserveAspectRatio="none" width="100%" height="100%" overflow="visible" style="display: block;" viewBox="0 0 37.2188 15.4692" fill="none" xmlns="http://www.w3.org/2000/svg">
<g id="Group">
<path id="Vector" d="M11.6955 7.71863L14.6123 4.80181C15.7107 3.70346 15.7107 1.92269 14.6123 0.824341V0.824335C13.514 -0.274012 11.7332 -0.274012 10.6349 0.824335L7.71806 3.74115L4.80123 0.824335C3.70289 -0.274012 1.92212 -0.274012 0.823772 0.824335L0.82376 0.824341C-0.274587 1.92269 -0.274587 3.70346 0.82376 4.80181L3.74058 7.71863L0.82376 10.6354C-0.274587 11.7338 -0.274587 13.5146 0.82376 14.6129L0.823772 14.6129C1.92212 15.7113 3.70289 15.7113 4.80123 14.6129L7.71806 11.6961L10.6349 14.6129C11.7332 15.7113 13.514 15.7113 14.6123 14.6129V14.6129C15.7107 13.5146 15.7107 11.7338 14.6123 10.6354L11.6955 7.71863Z" fill="var(--fill-0, #01AF7B)"/>
<path id="Vector_2" d="M36.395 0.823764L36.395 0.823762C35.2966 -0.274587 33.5159 -0.274587 32.4175 0.823762L24.562 8.67927L22.2418 6.35908C21.1434 5.26073 19.3627 5.26073 18.2643 6.35908L18.2643 6.35908C17.166 7.45743 17.166 9.2382 18.2643 10.3365L22.5733 14.6455V14.6455C23.6716 15.7438 25.4524 15.7438 26.5507 14.6455L36.395 4.80124C37.4933 3.70289 37.4933 1.92211 36.395 0.823764ZM34.4062 4.80469C33.306 4.80469 32.4141 3.91275 32.4141 2.8125C32.4141 1.71225 33.306 0.820314 34.4062 0.820314C35.5065 0.820314 36.3984 1.71225 36.3984 2.8125C36.3984 3.91275 35.5065 4.80469 34.4062 4.80469Z" fill="var(--fill-0, #01AF7B)"/>
</g>
</svg>
